Basteleur-Bold.ufo
<glyph name="exclamdown" format="2">
	<advance width="359"/>
	<unicode hex="00A1"/>
	<outline>
		<contour>
			<point x="178" y="279" type="curve" smooth="yes"/>
			<point x="152" y="279"/>
			<point x="141" y="258"/>
			<point x="129" y="184" type="curve" smooth="yes"/>
			<point x="109" y="14"/>
			<point x="70" y="-31"/>
			<point x="70" y="-100" type="curve" smooth="yes"/>
			<point x="70" y="-159"/>
			<point x="118" y="-199"/>
			<point x="179" y="-199" type="curve" smooth="yes"/>
			<point x="240" y="-199"/>
			<point x="289" y="-159"/>
			<point x="289" y="-98" type="curve" smooth="yes"/>
			<point x="289" y="-28"/>
			<point x="249" y="17"/>
			<point x="226" y="185" type="curve" smooth="yes"/>
			<point x="213" y="258"/>
			<point x="203" y="279"/>
		</contour>
		<component base="period" yScale="-1" yOffset="564"/>
	</outline>
</glyph>
<glyph name="copyright" format="2">
	<advance width="855"/>
	<unicode hex="00A9"/>
	<anchor x="426" y="-45" name="bottom"/>
	<anchor x="426" y="357" name="center"/>
	<anchor x="805" y="-29" name="ogonek"/>
	<anchor x="426" y="761" name="top"/>
	<anchor x="870" y="761" name="topright"/>
	<outline>
		<contour>
			<point x="426" y="-9" type="curve" smooth="yes"/>
			<point x="635" y="-9"/>
			<point x="805" y="155"/>
			<point x="805" y="360" type="curve" smooth="yes"/>
			<point x="805" y="571"/>
			<point x="635" y="726"/>
			<point x="426" y="726" type="curve" smooth="yes"/>
			<point x="218" y="726"/>
			<point x="50" y="562"/>
			<point x="50" y="360" type="curve" smooth="yes"/>
			<point x="50" y="145"/>
			<point x="218" y="-9"/>
		</contour>
		<contour>
			<point x="426" y="83" type="curve" smooth="yes"/>
			<point x="269" y="83"/>
			<point x="143" y="198"/>
			<point x="143" y="360" type="curve" smooth="yes"/>
			<point x="143" y="511"/>
			<point x="269" y="636"/>
			<point x="426" y="636" type="curve" smooth="yes"/>
			<point x="584" y="636"/>
			<point x="712" y="518"/>
			<point x="712" y="360" type="curve" smooth="yes"/>
			<point x="712" y="205"/>
			<point x="584" y="83"/>
		</contour>
		<contour>
			<point x="429" y="179" type="curve" smooth="yes"/>
			<point x="528" y="179"/>
			<point x="608" y="254"/>
			<point x="608" y="358" type="curve" smooth="yes"/>
			<point x="608" y="456"/>
			<point x="528" y="536"/>
			<point x="429" y="536" type="curve" smooth="yes"/>
			<point x="369" y="536"/>
			<point x="359" y="518"/>
			<point x="326" y="522" type="curve" smooth="yes"/>
			<point x="294" y="527"/>
			<point x="284" y="526"/>
			<point x="282" y="506" type="curve" smooth="yes"/>
			<point x="281" y="491"/>
			<point x="302" y="396"/>
			<point x="316" y="390" type="curve" smooth="yes"/>
			<point x="333" y="383"/>
			<point x="348" y="408"/>
			<point x="373" y="440" type="curve" smooth="yes"/>
			<point x="403" y="477"/>
			<point x="452" y="499"/>
			<point x="484" y="478" type="curve" smooth="yes"/>
			<point x="520" y="455"/>
			<point x="523" y="384"/>
			<point x="492" y="327" type="curve" smooth="yes"/>
			<point x="448" y="244"/>
			<point x="339" y="255"/>
			<point x="298" y="290" type="curve" smooth="yes"/>
			<point x="285" y="301"/>
			<point x="279" y="303"/>
			<point x="272" y="297" type="curve" smooth="yes"/>
			<point x="263" y="290"/>
			<point x="263" y="283"/>
			<point x="272" y="268" type="curve" smooth="yes"/>
			<point x="305" y="209"/>
			<point x="363" y="179"/>
		</contour>
	</outline>
</glyph>
<glyph name="gravecomb" format="2">
	<advance width="0"/>
	<unicode hex="0300"/>
	<anchor x="182" y="550" name="_top"/>
	<anchor x="182" y="815" name="top"/>
	<outline>
		<contour>
			<point x="311" y="622" type="curve" smooth="yes"/>
			<point x="331" y="653"/>
			<point x="225" y="765"/>
			<point x="170" y="796" type="curve" smooth="yes"/>
			<point x="126" y="821"/>
			<point x="84" y="813"/>
			<point x="62" y="780" type="curve" smooth="yes"/>
			<point x="40" y="747"/>
			<point x="48" y="705"/>
			<point x="88" y="680" type="curve" smooth="yes"/>
			<point x="142" y="646"/>
			<point x="291" y="591"/>
		</contour>
	</outline>
</glyph>
<glyph name="tonos" format="2">
	<advance width="363"/>
	<unicode hex="0384"/>
	<outline>
		<contour>
			<point x="43" y="605" type="curve" smooth="yes"/>
			<point x="70" y="581"/>
			<point x="196" y="666"/>
			<point x="239" y="713" type="curve" smooth="yes"/>
			<point x="272" y="747"/>
			<point x="272" y="796"/>
			<point x="242" y="822" type="curve" smooth="yes"/>
			<point x="212" y="849"/>
			<point x="170" y="845"/>
			<point x="134" y="810" type="curve" smooth="yes"/>
			<point x="89" y="766"/>
			<point x="15" y="630"/>
		</contour>
	</outline>
</glyph>
<glyph name="dieresistonos" format="2">
	<advance width="676"/>
	<unicode hex="0385"/>
	<outline>
		<contour>
			<point x="545" y="644" type="curve" smooth="yes"/>
			<point x="590" y="644"/>
			<point x="626" y="681"/>
			<point x="626" y="726" type="curve" smooth="yes"/>
			<point x="626" y="770"/>
			<point x="590" y="807"/>
			<point x="545" y="807" type="curve" smooth="yes"/>
			<point x="500" y="807"/>
			<point x="463" y="770"/>
			<point x="463" y="726" type="curve" smooth="yes"/>
			<point x="463" y="681"/>
			<point x="500" y="644"/>
		</contour>
		<contour>
			<point x="132" y="644" type="curve" smooth="yes"/>
			<point x="177" y="644"/>
			<point x="213" y="681"/>
			<point x="213" y="726" type="curve" smooth="yes"/>
			<point x="213" y="770"/>
			<point x="177" y="807"/>
			<point x="132" y="807" type="curve" smooth="yes"/>
			<point x="87" y="807"/>
			<point x="50" y="770"/>
			<point x="50" y="726" type="curve" smooth="yes"/>
			<point x="50" y="681"/>
			<point x="87" y="644"/>
		</contour>
		<contour>
			<point x="221" y="605" type="curve" smooth="yes"/>
			<point x="248" y="580"/>
			<point x="378" y="672"/>
			<point x="421" y="718" type="curve" smooth="yes"/>
			<point x="454" y="753"/>
			<point x="450" y="796"/>
			<point x="421" y="822" type="curve" smooth="yes"/>
			<point x="391" y="848"/>
			<point x="348" y="845"/>
			<point x="312" y="809" type="curve" smooth="yes"/>
			<point x="267" y="765"/>
			<point x="194" y="629"/>
		</contour>
	</outline>
</glyph>
<glyph name="anoteleia" format="2">
	<advance width="360"/>
	<unicode hex="0387"/>
	<outline>
		<contour>
			<point x="180" y="342" type="curve" smooth="yes"/>
			<point x="242" y="342"/>
			<point x="292" y="392"/>
			<point x="292" y="454" type="curve" smooth="yes"/>
			<point x="292" y="515"/>
			<point x="242" y="565"/>
			<point x="180" y="565" type="curve" smooth="yes"/>
			<point x="118" y="565"/>
			<point x="68" y="515"/>
			<point x="68" y="454" type="curve" smooth="yes"/>
			<point x="68" y="392"/>
			<point x="118" y="342"/>
		</contour>
	</outline>
</glyph>
<glyph name="Alpha" format="2">
	<advance width="869"/>
	<unicode hex="0391"/>
	<outline>
		<contour>
			<point x="430" y="775" type="curve" smooth="yes"/>
			<point x="401" y="775"/>
			<point x="388" y="756"/>
			<point x="360" y="698" type="curve" smooth="yes"/>
			<point x="229" y="421" type="line" smooth="yes"/>
			<point x="164" y="284"/>
			<point x="120" y="184"/>
			<point x="77" y="132" type="curve" smooth="yes"/>
			<point x="34" y="80"/>
			<point x="0" y="76"/>
			<point x="0" y="43" type="curve" smooth="yes"/>
			<point x="0" y="13"/>
			<point x="24" y="-5"/>
			<point x="61" y="-5" type="curve" smooth="yes"/>
			<point x="102" y="-5"/>
			<point x="123" y="3"/>
			<point x="166" y="3" type="curve" smooth="yes"/>
			<point x="208" y="3"/>
			<point x="230" y="-5"/>
			<point x="260" y="-5" type="curve" smooth="yes"/>
			<point x="297" y="-5"/>
			<point x="321" y="13"/>
			<point x="321" y="43" type="curve" smooth="yes"/>
			<point x="321" y="76"/>
			<point x="286" y="78"/>
			<point x="245" y="132" type="curve" smooth="yes"/>
			<point x="236" y="144"/>
			<point x="233" y="163"/>
			<point x="239" y="188" type="curve" smooth="yes"/>
			<point x="247" y="224"/>
			<point x="276" y="223"/>
			<point x="336" y="223" type="curve" smooth="yes"/>
			<point x="518" y="223" type="line" smooth="yes"/>
			<point x="553" y="223"/>
			<point x="572" y="220"/>
			<point x="581" y="190" type="curve" smooth="yes"/>
			<point x="589" y="165"/>
			<point x="590" y="147"/>
			<point x="584" y="132" type="curve" smooth="yes"/>
			<point x="566" y="88"/>
			<point x="517" y="76"/>
			<point x="517" y="43" type="curve" smooth="yes"/>
			<point x="517" y="13"/>
			<point x="541" y="-5"/>
			<point x="578" y="-5" type="curve" smooth="yes"/>
			<point x="619" y="-5"/>
			<point x="665" y="3"/>
			<point x="708" y="3" type="curve" smooth="yes"/>
			<point x="750" y="3"/>
			<point x="778" y="-5"/>
			<point x="808" y="-5" type="curve" smooth="yes"/>
			<point x="845" y="-5"/>
			<point x="869" y="13"/>
			<point x="869" y="43" type="curve" smooth="yes"/>
			<point x="869" y="76"/>
			<point x="843" y="78"/>
			<point x="802" y="132" type="curve" smooth="yes"/>
			<point x="763" y="183"/>
			<point x="713" y="285"/>
			<point x="647" y="421" type="curve" smooth="yes"/>
			<point x="509" y="705" type="line" smooth="yes"/>
			<point x="480" y="764"/>
			<point x="460" y="775"/>
		</contour>
		<contour>
			<point x="302" y="347" type="curve" smooth="yes"/>
			<point x="307" y="361"/>
			<point x="315" y="375"/>
			<point x="322" y="391" type="curve" smooth="yes"/>
			<point x="389" y="536" type="line" smooth="yes"/>
			<point x="395" y="550"/>
			<point x="408" y="550"/>
			<point x="415" y="537" type="curve" smooth="yes"/>
			<point x="495" y="376" type="line" smooth="yes"/>
			<point x="501" y="365"/>
			<point x="506" y="355"/>
			<point x="510" y="345" type="curve" smooth="yes"/>
			<point x="518" y="325"/>
			<point x="502" y="319"/>
			<point x="464" y="319" type="curve" smooth="yes"/>
			<point x="354" y="319" type="line" smooth="yes"/>
			<point x="316" y="319"/>
			<point x="295" y="326"/>
		</contour>
	</outline>
</glyph>
<glyph name="Gamma" format="2">
	<advance width="744"/>
	<unicode hex="0393"/>
	<outline>
		<contour>
			<point x="617" y="751" type="curve" smooth="yes"/>
			<point x="564" y="751"/>
			<point x="422" y="742"/>
			<point x="341" y="742" type="curve" smooth="yes"/>
			<point x="259" y="742"/>
			<point x="172" y="750"/>
			<point x="121" y="750" type="curve" smooth="yes"/>
			<point x="84" y="750"/>
			<point x="60" y="732"/>
			<point x="60" y="706" type="curve" smooth="yes"/>
			<point x="60" y="659"/>
			<point x="96" y="667"/>
			<point x="137" y="613" type="curve" smooth="yes"/>
			<point x="162" y="580"/>
			<point x="168" y="505"/>
			<point x="168" y="421" type="curve" smooth="yes"/>
			<point x="168" y="324" type="line" smooth="yes"/>
			<point x="168" y="240"/>
			<point x="162" y="165"/>
			<point x="137" y="132" type="curve" smooth="yes"/>
			<point x="96" y="78"/>
			<point x="70" y="76"/>
			<point x="70" y="43" type="curve" smooth="yes"/>
			<point x="70" y="13"/>
			<point x="94" y="-5"/>
			<point x="131" y="-5" type="curve" smooth="yes"/>
			<point x="161" y="-5"/>
			<point x="199" y="3"/>
			<point x="241" y="3" type="curve" smooth="yes"/>
			<point x="284" y="3"/>
			<point x="310" y="-5"/>
			<point x="351" y="-5" type="curve" smooth="yes"/>
			<point x="388" y="-5"/>
			<point x="412" y="13"/>
			<point x="412" y="43" type="curve" smooth="yes"/>
			<point x="412" y="76"/>
			<point x="386" y="78"/>
			<point x="345" y="132" type="curve" smooth="yes"/>
			<point x="320" y="165"/>
			<point x="314" y="240"/>
			<point x="314" y="324" type="curve" smooth="yes"/>
			<point x="314" y="481" type="line" smooth="yes"/>
			<point x="314" y="580"/>
			<point x="319" y="655"/>
			<point x="411" y="655" type="curve" smooth="yes"/>
			<point x="491" y="655"/>
			<point x="540" y="607"/>
			<point x="599" y="507" type="curve" smooth="yes"/>
			<point x="630" y="454"/>
			<point x="651" y="421"/>
			<point x="684" y="428" type="curve" smooth="yes"/>
			<point x="719" y="435"/>
			<point x="730" y="525"/>
			<point x="720" y="623" type="curve" smooth="yes"/>
			<point x="710" y="720"/>
			<point x="670" y="751"/>
		</contour>
	</outline>
</glyph>
<glyph name="uni0394" format="2">
	<advance width="819"/>
	<unicode hex="0394"/>
	<outline>
		<contour>
			<point x="400" y="775" type="curve" smooth="yes"/>
			<point x="371" y="775"/>
			<point x="358" y="756"/>
			<point x="330" y="698" type="curve" smooth="yes"/>
			<point x="199" y="421" type="line" smooth="yes"/>
			<point x="134" y="284"/>
			<point x="90" y="184"/>
			<point x="47" y="132" type="curve" smooth="yes"/>
			<point x="4" y="80"/>
			<point x="0" y="76"/>
			<point x="0" y="43" type="curve" smooth="yes"/>
			<point x="0" y="13"/>
			<point x="24" y="-5"/>
			<point x="61" y="-5" type="curve" smooth="yes"/>
			<point x="102" y="-5"/>
			<point x="123" y="3"/>
			<point x="166" y="3" type="curve" smooth="yes"/>
			<point x="208" y="3"/>
			<point x="210" y="3"/>
			<point x="241" y="3" type="curve" smooth="yes"/>
			<point x="648" y="3" type="line" smooth="yes"/>
			<point x="690" y="3"/>
			<point x="718" y="-5"/>
			<point x="748" y="-5" type="curve" smooth="yes"/>
			<point x="785" y="-5"/>
			<point x="819" y="13"/>
			<point x="819" y="43" type="curve" smooth="yes"/>
			<point x="819" y="76"/>
			<point x="813" y="78"/>
			<point x="772" y="132" type="curve" smooth="yes"/>
			<point x="733" y="183"/>
			<point x="683" y="285"/>
			<point x="617" y="421" type="curve" smooth="yes"/>
			<point x="479" y="705" type="line" smooth="yes"/>
			<point x="450" y="764"/>
			<point x="430" y="775"/>
		</contour>
		<contour>
			<point x="219" y="221" type="curve" smooth="yes"/>
			<point x="270" y="340"/>
			<point x="306" y="413"/>
			<point x="359" y="531" type="curve" smooth="yes"/>
			<point x="365" y="545"/>
			<point x="376" y="545"/>
			<point x="382" y="532" type="curve" smooth="yes"/>
			<point x="460" y="376" type="line" smooth="yes"/>
			<point x="506" y="283"/>
			<point x="511" y="267"/>
			<point x="531" y="221" type="curve" smooth="yes"/>
			<point x="554" y="169"/>
			<point x="549" y="144"/>
			<point x="464" y="144" type="curve" smooth="yes"/>
			<point x="290" y="144" type="line" smooth="yes"/>
			<point x="209" y="144"/>
			<point x="197" y="169"/>
		</contour>
	</outline>
</glyph>
<glyph name="Theta" format="2">
	<advance width="882"/>
	<unicode hex="0398"/>
	<outline>
		<contour>
			<point x="583" y="283" type="curve" smooth="yes"/>
			<point x="605" y="290"/>
			<point x="606" y="336"/>
			<point x="598" y="395" type="curve" smooth="yes"/>
			<point x="592" y="443"/>
			<point x="572" y="493"/>
			<point x="534" y="493" type="curve" smooth="yes"/>
			<point x="491" y="493"/>
			<point x="507" y="434"/>
			<point x="436" y="434" type="curve" smooth="yes"/>
			<point x="394" y="434"/>
			<point x="373" y="433"/>
			<point x="358" y="459" type="curve" smooth="yes"/>
			<point x="347" y="478"/>
			<point x="323" y="499"/>
			<point x="297" y="491" type="curve" smooth="yes"/>
			<point x="275" y="484"/>
			<point x="270" y="437"/>
			<point x="278" y="378" type="curve" smooth="yes"/>
			<point x="284" y="330"/>
			<point x="305" y="281"/>
			<point x="342" y="281" type="curve" smooth="yes"/>
			<point x="385" y="281"/>
			<point x="369" y="340"/>
			<point x="440" y="340" type="curve" smooth="yes"/>
			<point x="482" y="340"/>
			<point x="507" y="340"/>
			<point x="522" y="315" type="curve" smooth="yes"/>
			<point x="534" y="295"/>
			<point x="557" y="274"/>
		</contour>
		<contour>
			<point x="441" y="-14" type="curve" smooth="yes"/>
			<point x="669" y="-14"/>
			<point x="852" y="159"/>
			<point x="852" y="373" type="curve" smooth="yes"/>
			<point x="852" y="596"/>
			<point x="669" y="760"/>
			<point x="441" y="760" type="curve" smooth="yes"/>
			<point x="213" y="760"/>
			<point x="30" y="587"/>
			<point x="30" y="373" type="curve" smooth="yes"/>
			<point x="30" y="150"/>
			<point x="213" y="-14"/>
		</contour>
		<contour>
			<point x="475" y="107" type="curve" smooth="yes"/>
			<point x="318" y="107"/>
			<point x="216" y="286"/>
			<point x="216" y="452" type="curve" smooth="yes"/>
			<point x="216" y="570"/>
			<point x="293" y="659"/>
			<point x="407" y="659" type="curve" smooth="yes"/>
			<point x="564" y="659"/>
			<point x="666" y="481"/>
			<point x="666" y="315" type="curve" smooth="yes"/>
			<point x="666" y="197"/>
			<point x="589" y="107"/>
		</contour>
	</outline>
</glyph>
<glyph name="Lambda" format="2">
	<advance width="869"/>
	<unicode hex="039B"/>
	<outline>
		<contour>
			<point x="430" y="775" type="curve" smooth="yes"/>
			<point x="401" y="775"/>
			<point x="390" y="755"/>
			<point x="360" y="698" type="curve"/>
			<point x="229" y="421" type="line" smooth="yes"/>
			<point x="164" y="284"/>
			<point x="120" y="184"/>
			<point x="77" y="132" type="curve" smooth="yes"/>
			<point x="34" y="80"/>
			<point x="0" y="76"/>
			<point x="0" y="43" type="curve" smooth="yes"/>
			<point x="0" y="13"/>
			<point x="24" y="-5"/>
			<point x="61" y="-5" type="curve" smooth="yes"/>
			<point x="102" y="-5"/>
			<point x="123" y="3"/>
			<point x="166" y="3" type="curve" smooth="yes"/>
			<point x="208" y="3"/>
			<point x="230" y="-5"/>
			<point x="260" y="-5" type="curve" smooth="yes"/>
			<point x="297" y="-5"/>
			<point x="321" y="13"/>
			<point x="321" y="43" type="curve" smooth="yes"/>
			<point x="321" y="76"/>
			<point x="286" y="78"/>
			<point x="245" y="132" type="curve" smooth="yes"/>
			<point x="219" y="166"/>
			<point x="268" y="247"/>
			<point x="332" y="391" type="curve" smooth="yes"/>
			<point x="394" y="531" type="line" smooth="yes"/>
			<point x="400" y="545"/>
			<point x="411" y="545"/>
			<point x="417" y="532" type="curve" smooth="yes"/>
			<point x="490" y="376" type="line" smooth="yes"/>
			<point x="553" y="241"/>
			<point x="600" y="172"/>
			<point x="584" y="132" type="curve" smooth="yes"/>
			<point x="566" y="88"/>
			<point x="517" y="76"/>
			<point x="517" y="43" type="curve" smooth="yes"/>
			<point x="517" y="13"/>
			<point x="541" y="-5"/>
			<point x="578" y="-5" type="curve" smooth="yes"/>
			<point x="619" y="-5"/>
			<point x="665" y="3"/>
			<point x="708" y="3" type="curve" smooth="yes"/>
			<point x="750" y="3"/>
			<point x="778" y="-5"/>
			<point x="808" y="-5" type="curve" smooth="yes"/>
			<point x="845" y="-5"/>
			<point x="869" y="13"/>
			<point x="869" y="43" type="curve" smooth="yes"/>
			<point x="869" y="76"/>
			<point x="843" y="78"/>
			<point x="802" y="132" type="curve" smooth="yes"/>
			<point x="763" y="183"/>
			<point x="713" y="285"/>
			<point x="647" y="421" type="curve" smooth="yes"/>
			<point x="509" y="705" type="line" smooth="yes"/>
			<point x="480" y="764"/>
			<point x="460" y="775"/>
		</contour>
	</outline>
</glyph>
<glyph name="Xi" format="2">
	<advance width="894"/>
	<unicode hex="039E"/>
	<outline>
		<contour>
			<point x="761" y="-6" type="curve" smooth="yes"/>
			<point x="814" y="-6"/>
			<point x="854" y="25"/>
			<point x="854" y="122" type="curve" smooth="yes"/>
			<point x="854" y="210"/>
			<point x="853" y="280"/>
			<point x="818" y="287" type="curve" smooth="yes"/>
			<point x="785" y="294"/>
			<point x="765" y="261"/>
			<point x="733" y="208" type="curve" smooth="yes"/>
			<point x="695" y="145"/>
			<point x="655" y="90"/>
			<point x="595" y="90" type="curve" smooth="yes"/>
			<point x="504" y="90"/>
			<point x="522" y="249"/>
			<point x="522" y="324" type="curve" smooth="yes"/>
			<point x="522" y="351"/>
			<point x="539" y="355"/>
			<point x="547" y="355" type="curve" smooth="yes"/>
			<point x="568" y="355"/>
			<point x="574" y="334"/>
			<point x="593" y="299" type="curve" smooth="yes"/>
			<point x="614" y="260"/>
			<point x="641" y="231"/>
			<point x="678" y="242" type="curve" smooth="yes"/>
			<point x="708" y="251"/>
			<point x="714" y="309"/>
			<point x="704" y="391" type="curve" smooth="yes"/>
			<point x="696" y="457"/>
			<point x="677" y="519"/>
			<point x="624" y="519" type="curve" smooth="yes"/>
			<point x="566" y="519"/>
			<point x="589" y="443"/>
			<point x="538" y="443" type="curve" smooth="yes"/>
			<point x="523" y="443"/>
			<point x="523" y="460"/>
			<point x="523" y="486" type="curve" smooth="yes"/>
			<point x="523" y="561"/>
			<point x="529" y="663"/>
			<point x="593" y="663" type="curve" smooth="yes"/>
			<point x="653" y="663"/>
			<point x="679" y="619"/>
			<point x="713" y="555" type="curve" smooth="yes"/>
			<point x="741" y="502"/>
			<point x="752" y="476"/>
			<point x="785" y="479" type="curve" smooth="yes"/>
			<point x="823" y="482"/>
			<point x="824" y="553"/>
			<point x="814" y="641" type="curve" smooth="yes"/>
			<point x="803" y="737"/>
			<point x="774" y="769"/>
			<point x="721" y="769" type="curve" smooth="yes"/>
			<point x="631" y="769"/>
			<point x="540" y="742"/>
			<point x="447" y="742" type="curve" smooth="yes"/>
			<point x="354" y="742"/>
			<point x="263" y="769"/>
			<point x="173" y="769" type="curve" smooth="yes"/>
			<point x="120" y="769"/>
			<point x="91" y="737"/>
			<point x="80" y="641" type="curve" smooth="yes"/>
			<point x="70" y="553"/>
			<point x="71" y="482"/>
			<point x="109" y="479" type="curve" smooth="yes"/>
			<point x="142" y="476"/>
			<point x="153" y="502"/>
			<point x="181" y="555" type="curve" smooth="yes"/>
			<point x="215" y="619"/>
			<point x="241" y="663"/>
			<point x="301" y="663" type="curve" smooth="yes"/>
			<point x="365" y="663"/>
			<point x="371" y="561"/>
			<point x="371" y="486" type="curve" smooth="yes"/>
			<point x="371" y="460"/>
			<point x="371" y="443"/>
			<point x="356" y="443" type="curve" smooth="yes"/>
			<point x="305" y="443"/>
			<point x="328" y="519"/>
			<point x="270" y="519" type="curve" smooth="yes"/>
			<point x="217" y="519"/>
			<point x="198" y="457"/>
			<point x="190" y="391" type="curve" smooth="yes"/>
			<point x="180" y="309"/>
			<point x="186" y="251"/>
			<point x="216" y="242" type="curve" smooth="yes"/>
			<point x="253" y="231"/>
			<point x="270" y="260"/>
			<point x="291" y="299" type="curve" smooth="yes"/>
			<point x="310" y="334"/>
			<point x="326" y="355"/>
			<point x="347" y="355" type="curve" smooth="yes"/>
			<point x="355" y="355"/>
			<point x="372" y="351"/>
			<point x="372" y="324" type="curve" smooth="yes"/>
			<point x="372" y="249"/>
			<point x="390" y="90"/>
			<point x="299" y="90" type="curve" smooth="yes"/>
			<point x="239" y="90"/>
			<point x="199" y="145"/>
			<point x="161" y="208" type="curve" smooth="yes"/>
			<point x="129" y="261"/>
			<point x="109" y="294"/>
			<point x="76" y="287" type="curve" smooth="yes"/>
			<point x="41" y="280"/>
			<point x="40" y="210"/>
			<point x="40" y="122" type="curve" smooth="yes"/>
			<point x="40" y="25"/>
			<point x="80" y="-6"/>
			<point x="133" y="-6" type="curve" smooth="yes"/>
			<point x="186" y="-6"/>
			<point x="345" y="3"/>
			<point x="447" y="3" type="curve" smooth="yes"/>
			<point x="549" y="3"/>
			<point x="708" y="-6"/>
		</contour>
	</outline>
</glyph>
<glyph name="Pi" format="2">
	<advance width="1019"/>
	<unicode hex="03A0"/>
	<outline>
		<contour>
			<point x="658" y="-5" type="curve" smooth="yes"/>
			<point x="709" y="-5"/>
			<point x="736" y="3"/>
			<point x="778" y="3" type="curve" smooth="yes"/>
			<point x="821" y="3"/>
			<point x="858" y="-5"/>
			<point x="898" y="-5" type="curve" smooth="yes"/>
			<point x="935" y="-5"/>
			<point x="959" y="13"/>
			<point x="959" y="39" type="curve" smooth="yes"/>
			<point x="959" y="86"/>
			<point x="923" y="78"/>
			<point x="882" y="132" type="curve" smooth="yes"/>
			<point x="857" y="165"/>
			<point x="851" y="240"/>
			<point x="851" y="324" type="curve" smooth="yes"/>
			<point x="851" y="421" type="line" smooth="yes"/>
			<point x="851" y="505"/>
			<point x="857" y="580"/>
			<point x="882" y="613" type="curve" smooth="yes"/>
			<point x="923" y="667"/>
			<point x="949" y="669"/>
			<point x="949" y="702" type="curve" smooth="yes"/>
			<point x="949" y="732"/>
			<point x="925" y="750"/>
			<point x="888" y="750" type="curve" smooth="yes"/>
			<point x="847" y="750"/>
			<point x="821" y="742"/>
			<point x="778" y="742" type="curve" smooth="yes"/>
			<point x="241" y="742"/>
			<point x="778" y="742"/>
			<point x="241" y="742" type="curve" smooth="yes"/>
			<point x="199" y="742"/>
			<point x="161" y="750"/>
			<point x="131" y="750" type="curve" smooth="yes"/>
			<point x="94" y="750"/>
			<point x="70" y="732"/>
			<point x="70" y="702" type="curve" smooth="yes"/>
			<point x="70" y="669"/>
			<point x="96" y="667"/>
			<point x="137" y="613" type="curve" smooth="yes"/>
			<point x="162" y="580"/>
			<point x="168" y="505"/>
			<point x="168" y="421" type="curve" smooth="yes"/>
			<point x="168" y="324" type="line" smooth="yes"/>
			<point x="168" y="240"/>
			<point x="162" y="165"/>
			<point x="137" y="132" type="curve" smooth="yes"/>
			<point x="96" y="78"/>
			<point x="60" y="86"/>
			<point x="60" y="39" type="curve" smooth="yes"/>
			<point x="60" y="13"/>
			<point x="84" y="-5"/>
			<point x="121" y="-5" type="curve" smooth="yes"/>
			<point x="172" y="-5"/>
			<point x="199" y="3"/>
			<point x="241" y="3" type="curve" smooth="yes"/>
			<point x="284" y="3"/>
			<point x="321" y="-5"/>
			<point x="361" y="-5" type="curve" smooth="yes"/>
			<point x="398" y="-5"/>
			<point x="422" y="13"/>
			<point x="422" y="39" type="curve" smooth="yes"/>
			<point x="422" y="86"/>
			<point x="386" y="78"/>
			<point x="345" y="132" type="curve" smooth="yes"/>
			<point x="320" y="165"/>
			<point x="314" y="210"/>
			<point x="314" y="324" type="curve" smooth="yes"/>
			<point x="314" y="569" type="line" smooth="yes"/>
			<point x="314" y="624"/>
			<point x="319" y="646"/>
			<point x="386" y="646" type="curve" smooth="yes"/>
			<point x="638" y="646" type="line" smooth="yes"/>
			<point x="702" y="646"/>
			<point x="705" y="621"/>
			<point x="705" y="569" type="curve" smooth="yes"/>
			<point x="705" y="324" type="line" smooth="yes"/>
			<point x="705" y="210"/>
			<point x="699" y="165"/>
			<point x="674" y="132" type="curve" smooth="yes"/>
			<point x="633" y="78"/>
			<point x="597" y="86"/>
			<point x="597" y="39" type="curve" smooth="yes"/>
			<point x="597" y="13"/>
			<point x="621" y="-5"/>
		</contour>
	</outline>
</glyph>
<glyph name="Sigma" format="2">
	<advance width="778"/>
	<unicode hex="03A3"/>
	<outline>
		<contour>
			<point x="54" y="104" type="curve" smooth="yes"/>
			<point x="297" y="369" type="line" smooth="yes"/>
			<point x="304" y="377"/>
			<point x="303" y="387"/>
			<point x="296" y="395" type="curve" smooth="yes"/>
			<point x="73" y="653" type="line" smooth="yes"/>
			<point x="48" y="682"/>
			<point x="34" y="705"/>
			<point x="41" y="724" type="curve" smooth="yes"/>
			<point x="48" y="742"/>
			<point x="72" y="745"/>
			<point x="109" y="745" type="curve" smooth="yes"/>
			<point x="438" y="745" type="line" smooth="yes"/>
			<point x="521" y="745"/>
			<point x="516" y="793"/>
			<point x="569" y="793" type="curve" smooth="yes"/>
			<point x="604" y="793"/>
			<point x="632" y="758"/>
			<point x="664" y="689" type="curve" smooth="yes"/>
			<point x="706" y="598"/>
			<point x="724" y="551"/>
			<point x="669" y="551" type="curve" smooth="yes"/>
			<point x="636" y="551"/>
			<point x="614" y="577"/>
			<point x="560" y="618" type="curve" smooth="yes"/>
			<point x="527" y="643"/>
			<point x="472" y="649"/>
			<point x="388" y="649" type="curve" smooth="yes"/>
			<point x="324" y="649" type="line" smooth="yes"/>
			<point x="299" y="649"/>
			<point x="294" y="641"/>
			<point x="312" y="621" type="curve" smooth="yes"/>
			<point x="466" y="445" type="line" smooth="yes"/>
			<point x="479" y="431"/>
			<point x="481" y="408"/>
			<point x="467" y="392" type="curve" smooth="yes"/>
			<point x="261" y="169" type="line" smooth="yes"/>
			<point x="241" y="147"/>
			<point x="250" y="136"/>
			<point x="277" y="136" type="curve" smooth="yes"/>
			<point x="379" y="136" type="line" smooth="yes"/>
			<point x="473" y="136"/>
			<point x="562" y="149"/>
			<point x="631" y="235" type="curve" smooth="yes"/>
			<point x="672" y="286"/>
			<point x="689" y="304"/>
			<point x="714" y="294" type="curve" smooth="yes"/>
			<point x="740" y="284"/>
			<point x="738" y="230"/>
			<point x="738" y="193" type="curve" smooth="yes"/>
			<point x="738" y="46"/>
			<point x="700" y="0"/>
			<point x="578" y="0" type="curve" smooth="yes"/>
			<point x="127" y="0" type="line" smooth="yes"/>
			<point x="75" y="0"/>
			<point x="40" y="-4"/>
			<point x="27" y="21" type="curve" smooth="yes"/>
			<point x="16" y="43"/>
			<point x="16" y="62"/>
		</contour>
	</outline>
</glyph>
<glyph name="Phi" format="2">
	<advance width="950"/>
	<unicode hex="03A6"/>
	<outline>
		<contour>
			<point x="475" y="3" type="curve" smooth="yes"/>
			<point x="518" y="3"/>
			<point x="555" y="-5"/>
			<point x="595" y="-5" type="curve" smooth="yes"/>
			<point x="632" y="-5"/>
			<point x="656" y="13"/>
			<point x="656" y="39" type="curve" smooth="yes"/>
			<point x="656" y="86"/>
			<point x="620" y="78"/>
			<point x="579" y="132" type="curve" smooth="yes"/>
			<point x="571" y="142"/>
			<point x="565" y="156"/>
			<point x="561" y="173" type="curve"/>
			<point x="600" y="158"/>
			<point x="647" y="145"/>
			<point x="702" y="145" type="curve" smooth="yes"/>
			<point x="838" y="145"/>
			<point x="940" y="232"/>
			<point x="940" y="372" type="curve" smooth="yes"/>
			<point x="940" y="512"/>
			<point x="838" y="599"/>
			<point x="702" y="599" type="curve" smooth="yes"/>
			<point x="647" y="599"/>
			<point x="599" y="586"/>
			<point x="560" y="569" type="curve"/>
			<point x="565" y="588"/>
			<point x="571" y="602"/>
			<point x="579" y="613" type="curve" smooth="yes"/>
			<point x="620" y="667"/>
			<point x="646" y="669"/>
			<point x="646" y="702" type="curve" smooth="yes"/>
			<point x="646" y="732"/>
			<point x="622" y="750"/>
			<point x="585" y="750" type="curve" smooth="yes"/>
			<point x="544" y="750"/>
			<point x="518" y="742"/>
			<point x="475" y="742" type="curve" smooth="yes"/>
			<point x="432" y="742"/>
			<point x="406" y="750"/>
			<point x="365" y="750" type="curve" smooth="yes"/>
			<point x="328" y="750"/>
			<point x="304" y="732"/>
			<point x="304" y="702" type="curve" smooth="yes"/>
			<point x="304" y="669"/>
			<point x="330" y="667"/>
			<point x="371" y="613" type="curve" smooth="yes"/>
			<point x="379" y="602"/>
			<point x="385" y="588"/>
			<point x="390" y="569" type="curve"/>
			<point x="351" y="586"/>
			<point x="303" y="599"/>
			<point x="248" y="599" type="curve" smooth="yes"/>
			<point x="112" y="599"/>
			<point x="10" y="512"/>
			<point x="10" y="372" type="curve" smooth="yes"/>
			<point x="10" y="232"/>
			<point x="112" y="145"/>
			<point x="248" y="145" type="curve" smooth="yes"/>
			<point x="303" y="145"/>
			<point x="350" y="158"/>
			<point x="389" y="173" type="curve"/>
			<point x="385" y="156"/>
			<point x="379" y="142"/>
			<point x="371" y="132" type="curve" smooth="yes"/>
			<point x="330" y="78"/>
			<point x="294" y="86"/>
			<point x="294" y="39" type="curve" smooth="yes"/>
			<point x="294" y="13"/>
			<point x="318" y="-5"/>
			<point x="355" y="-5" type="curve" smooth="yes"/>
			<point x="395" y="-5"/>
			<point x="432" y="3"/>
		</contour>
		<contour>
			<point x="625" y="236" type="curve" smooth="yes"/>
			<point x="552" y="236"/>
			<point x="548" y="240"/>
			<point x="548" y="324" type="curve" smooth="yes"/>
			<point x="548" y="421" type="line" smooth="yes"/>
			<point x="548" y="503"/>
			<point x="555" y="508"/>
			<point x="625" y="508" type="curve" smooth="yes"/>
			<point x="703" y="508"/>
			<point x="749" y="462"/>
			<point x="749" y="372" type="curve" smooth="yes"/>
			<point x="749" y="286"/>
			<point x="703" y="236"/>
		</contour>
		<contour>
			<point x="325" y="236" type="curve" smooth="yes"/>
			<point x="247" y="236"/>
			<point x="201" y="286"/>
			<point x="201" y="372" type="curve" smooth="yes"/>
			<point x="201" y="462"/>
			<point x="247" y="508"/>
			<point x="325" y="508" type="curve" smooth="yes"/>
			<point x="395" y="508"/>
			<point x="402" y="503"/>
			<point x="402" y="421" type="curve" smooth="yes"/>
			<point x="402" y="324" type="line" smooth="yes"/>
			<point x="402" y="240"/>
			<point x="398" y="236"/>
		</contour>
	</outline>
</glyph>
<glyph name="Psi" format="2">
	<advance width="1004"/>
	<unicode hex="03A8"/>
	<outline>
		<contour>
			<point x="382" y="-5" type="curve" smooth="yes"/>
			<point x="433" y="-5"/>
			<point x="460" y="3"/>
			<point x="502" y="3" type="curve" smooth="yes"/>
			<point x="545" y="3"/>
			<point x="582" y="-5"/>
			<point x="622" y="-5" type="curve" smooth="yes"/>
			<point x="659" y="-5"/>
			<point x="683" y="13"/>
			<point x="683" y="39" type="curve" smooth="yes"/>
			<point x="683" y="86"/>
			<point x="647" y="78"/>
			<point x="606" y="132" type="curve" smooth="yes"/>
			<point x="599" y="142"/>
			<point x="593" y="178"/>
			<point x="589" y="223" type="curve"/>
			<point x="829" y="242"/>
			<point x="916" y="345"/>
			<point x="916" y="504" type="curve" smooth="yes"/>
			<point x="916" y="665"/>
			<point x="1024" y="643"/>
			<point x="1024" y="702" type="curve" smooth="yes"/>
			<point x="1024" y="732"/>
			<point x="1000" y="750"/>
			<point x="963" y="750" type="curve" smooth="yes"/>
			<point x="922" y="750"/>
			<point x="906" y="742"/>
			<point x="863" y="742" type="curve" smooth="yes"/>
			<point x="821" y="742"/>
			<point x="793" y="750"/>
			<point x="763" y="750" type="curve" smooth="yes"/>
			<point x="726" y="750"/>
			<point x="702" y="732"/>
			<point x="702" y="702" type="curve" smooth="yes"/>
			<point x="702" y="634"/>
			<point x="770" y="640"/>
			<point x="770" y="524" type="curve" smooth="yes"/>
			<point x="770" y="389"/>
			<point x="719" y="332"/>
			<point x="581" y="318" type="curve"/>
			<point x="577" y="385"/>
			<point x="575" y="442"/>
			<point x="575" y="437" type="curve"/>
			<point x="579" y="636"/>
			<point x="653" y="655"/>
			<point x="653" y="702" type="curve" smooth="yes"/>
			<point x="653" y="732"/>
			<point x="629" y="750"/>
			<point x="592" y="750" type="curve" smooth="yes"/>
			<point x="551" y="750"/>
			<point x="530" y="742"/>
			<point x="502" y="742" type="curve" smooth="yes"/>
			<point x="491" y="742"/>
			<point x="479" y="744"/>
			<point x="468" y="745" type="curve" smooth="yes"/>
			<point x="446" y="747" type="line" smooth="yes"/>
			<point x="435" y="748"/>
			<point x="423" y="750"/>
			<point x="412" y="750" type="curve" smooth="yes"/>
			<point x="375" y="750"/>
			<point x="351" y="732"/>
			<point x="351" y="702" type="curve" smooth="yes"/>
			<point x="351" y="654"/>
			<point x="429" y="635"/>
			<point x="429" y="421" type="curve" smooth="yes"/>
			<point x="429" y="318"/>
			<point x="429" y="421"/>
			<point x="429" y="318" type="curve"/>
			<point x="286" y="337"/>
			<point x="234" y="413"/>
			<point x="234" y="524" type="curve" smooth="yes"/>
			<point x="234" y="636"/>
			<point x="302" y="635"/>
			<point x="302" y="702" type="curve" smooth="yes"/>
			<point x="302" y="732"/>
			<point x="278" y="750"/>
			<point x="241" y="750" type="curve" smooth="yes"/>
			<point x="200" y="750"/>
			<point x="184" y="742"/>
			<point x="141" y="742" type="curve" smooth="yes"/>
			<point x="99" y="742"/>
			<point x="71" y="750"/>
			<point x="41" y="750" type="curve" smooth="yes"/>
			<point x="4" y="750"/>
			<point x="-20" y="732"/>
			<point x="-20" y="702" type="curve" smooth="yes"/>
			<point x="-20" y="643"/>
			<point x="88" y="665"/>
			<point x="88" y="504" type="curve" smooth="yes"/>
			<point x="88" y="343"/>
			<point x="179" y="240"/>
			<point x="425" y="223" type="curve"/>
			<point x="421" y="183"/>
			<point x="412" y="151"/>
			<point x="398" y="132" type="curve" smooth="yes"/>
			<point x="357" y="78"/>
			<point x="321" y="86"/>
			<point x="321" y="39" type="curve" smooth="yes"/>
			<point x="321" y="13"/>
			<point x="345" y="-5"/>
		</contour>
	</outline>
</glyph>
<glyph name="uni03A9" format="2">
	<advance width="948"/>
	<unicode hex="03A9"/>
	<outline>
		<contour>
			<point x="444" y="22" type="curve" smooth="yes"/>
			<point x="444" y="71" type="line" smooth="yes"/>
			<point x="444" y="85"/>
			<point x="433" y="95"/>
			<point x="422" y="107" type="curve" smooth="yes"/>
			<point x="340" y="190"/>
			<point x="295" y="315"/>
			<point x="295" y="442" type="curve" smooth="yes"/>
			<point x="295" y="550"/>
			<point x="352" y="659"/>
			<point x="456" y="659" type="curve" smooth="yes"/>
			<point x="583" y="659"/>
			<point x="655" y="521"/>
			<point x="655" y="355" type="curve" smooth="yes"/>
			<point x="655" y="250"/>
			<point x="598" y="117"/>
			<point x="539" y="99" type="curve" smooth="yes"/>
			<point x="523" y="94"/>
			<point x="514" y="85"/>
			<point x="514" y="71" type="curve" smooth="yes"/>
			<point x="514" y="22" type="line" smooth="yes"/>
			<point x="514" y="7"/>
			<point x="524" y="-4"/>
			<point x="539" y="-3" type="curve" smooth="yes"/>
			<point x="655" y="5"/>
			<point x="671" y="3"/>
			<point x="787" y="-2" type="curve" smooth="yes"/>
			<point x="909" y="-7"/>
			<point x="947" y="6"/>
			<point x="947" y="153" type="curve" smooth="yes"/>
			<point x="947" y="190"/>
			<point x="949" y="244"/>
			<point x="923" y="254" type="curve" smooth="yes"/>
			<point x="898" y="264"/>
			<point x="881" y="246"/>
			<point x="840" y="195" type="curve" smooth="yes"/>
			<point x="782" y="123"/>
			<point x="739" y="89"/>
			<point x="642" y="85" type="curve"/>
			<point x="754" y="153"/>
			<point x="841" y="274"/>
			<point x="841" y="403" type="curve" smooth="yes"/>
			<point x="841" y="606"/>
			<point x="698" y="760"/>
			<point x="480" y="760" type="curve" smooth="yes"/>
			<point x="262" y="760"/>
			<point x="109" y="607"/>
			<point x="109" y="403" type="curve" smooth="yes"/>
			<point x="109" y="264"/>
			<point x="203" y="151"/>
			<point x="309" y="86" type="curve"/>
			<point x="214" y="92"/>
			<point x="164" y="125"/>
			<point x="108" y="195" type="curve" smooth="yes"/>
			<point x="67" y="246"/>
			<point x="50" y="264"/>
			<point x="25" y="254" type="curve" smooth="yes"/>
			<point x="-1" y="244"/>
			<point x="1" y="190"/>
			<point x="1" y="153" type="curve" smooth="yes"/>
			<point x="1" y="6"/>
			<point x="39" y="-7"/>
			<point x="161" y="-2" type="curve" smooth="yes"/>
			<point x="277" y="3"/>
			<point x="303" y="5"/>
			<point x="419" y="-3" type="curve" smooth="yes"/>
			<point x="434" y="-4"/>
			<point x="444" y="7"/>
		</contour>
	</outline>
</glyph>
<glyph name="alpha" format="2">
	<advance width="703"/>
	<unicode hex="03B1"/>
	<outline>
		<contour>
			<point x="272" y="-15" type="curve" smooth="yes"/>
			<point x="365" y="-15"/>
			<point x="405" y="25"/>
			<point x="446" y="87" type="curve"/>
			<point x="450" y="49"/>
			<point x="455" y="14"/>
			<point x="470" y="-1" type="curve" smooth="yes"/>
			<point x="494" y="-25"/>
			<point x="531" y="-2"/>
			<point x="581" y="7" type="curve" smooth="yes"/>
			<point x="615" y="13"/>
			<point x="683" y="13"/>
			<point x="677" y="65" type="curve" smooth="yes"/>
			<point x="672" y="110"/>
			<point x="637" y="90"/>
			<point x="615" y="129" type="curve" smooth="yes"/>
			<point x="579" y="195"/>
			<point x="568" y="342"/>
			<point x="608" y="406" type="curve" smooth="yes"/>
			<point x="659" y="486"/>
			<point x="694" y="503"/>
			<point x="654" y="543" type="curve" smooth="yes"/>
			<point x="623" y="575"/>
			<point x="595" y="571"/>
			<point x="521" y="528" type="curve" smooth="yes"/>
			<point x="478" y="503"/>
			<point x="443" y="500"/>
			<point x="395" y="529" type="curve" smooth="yes"/>
			<point x="358" y="551"/>
			<point x="322" y="566"/>
			<point x="266" y="566" type="curve" smooth="yes"/>
			<point x="115" y="566"/>
			<point x="25" y="432"/>
			<point x="25" y="282" type="curve" smooth="yes"/>
			<point x="25" y="141"/>
			<point x="104" y="-15"/>
		</contour>
		<contour>
			<point x="340" y="118" type="curve" smooth="yes"/>
			<point x="267" y="118"/>
			<point x="209" y="217"/>
			<point x="195" y="302" type="curve" smooth="yes"/>
			<point x="178" y="412"/>
			<point x="210" y="469"/>
			<point x="269" y="469" type="curve" smooth="yes"/>
			<point x="354" y="469"/>
			<point x="410" y="358"/>
			<point x="423" y="259" type="curve" smooth="yes"/>
			<point x="436" y="162"/>
			<point x="404" y="118"/>
		</contour>
	</outline>
</glyph>
<glyph name="beta" format="2">
	<advance width="672"/>
	<unicode hex="03B2"/>
	<outline>
		<contour>
			<point x="347" y="-15" type="curve" smooth="yes"/>
			<point x="508" y="-15"/>
			<point x="647" y="68"/>
			<point x="647" y="236" type="curve" smooth="yes"/>
			<point x="647" y="336"/>
			<point x="569" y="414"/>
			<point x="457" y="433" type="curve"/>
			<point x="559" y="464"/>
			<point x="602" y="540"/>
			<point x="602" y="619" type="curve" smooth="yes"/>
			<point x="602" y="739"/>
			<point x="489" y="815"/>
			<point x="370" y="815" type="curve" smooth="yes"/>
			<point x="101" y="815"/>
			<point x="25" y="520"/>
			<point x="25" y="336" type="curve" smooth="yes"/>
			<point x="25" y="143"/>
			<point x="131" y="-15"/>
		</contour>
		<contour>
			<point x="311" y="480" type="curve" smooth="yes"/>
			<point x="235" y="487"/>
			<point x="232" y="384"/>
			<point x="311" y="375" type="curve" smooth="yes"/>
			<point x="415" y="363"/>
			<point x="456" y="302"/>
			<point x="456" y="211" type="curve" smooth="yes"/>
			<point x="456" y="134"/>
			<point x="430" y="80"/>
			<point x="366" y="80" type="curve" smooth="yes"/>
			<point x="241" y="80"/>
			<point x="201" y="305"/>
			<point x="201" y="416" type="curve" smooth="yes"/>
			<point x="201" y="540"/>
			<point x="214" y="727"/>
			<point x="331" y="727" type="curve" smooth="yes"/>
			<point x="396" y="727"/>
			<point x="430" y="646"/>
			<point x="430" y="589" type="curve" smooth="yes"/>
			<point x="430" y="510"/>
			<point x="400" y="472"/>
		</contour>
	</outline>
</glyph>
<glyph name="gamma" format="2">
	<advance width="654"/>
	<unicode hex="03B3"/>
	<outline>
		<contour>
			<point x="394" y="274" type="curve" smooth="yes"/>
			<point x="350" y="189" type="line"/>
			<point x="306" y="284" type="line" smooth="yes"/>
			<point x="260" y="383"/>
			<point x="239" y="430"/>
			<point x="252" y="462" type="curve" smooth="yes"/>
			<point x="265" y="493"/>
			<point x="302" y="498"/>
			<point x="302" y="521" type="curve" smooth="yes"/>
			<point x="302" y="543"/>
			<point x="284" y="556"/>
			<point x="257" y="556" type="curve" smooth="yes"/>
			<point x="228" y="556"/>
			<point x="171" y="550"/>
			<point x="130" y="550" type="curve" smooth="yes"/>
			<point x="90" y="550"/>
			<point x="36" y="556"/>
			<point x="14" y="556" type="curve" smooth="yes"/>
			<point x="-12" y="556"/>
			<point x="-30" y="543"/>
			<point x="-30" y="521" type="curve" smooth="yes"/>
			<point x="-30" y="498"/>
			<point x="-4" y="493"/>
			<point x="28" y="456" type="curve" smooth="yes"/>
			<point x="91" y="385"/>
			<point x="201" y="143"/>
			<point x="257" y="42" type="curve"/>
			<point x="220" y="-13"/>
			<point x="187" y="-76"/>
			<point x="187" y="-131" type="curve" smooth="yes"/>
			<point x="187" y="-220"/>
			<point x="246" y="-258"/>
			<point x="326" y="-258" type="curve" smooth="yes"/>
			<point x="406" y="-258"/>
			<point x="475" y="-210"/>
			<point x="475" y="-131" type="curve" smooth="yes"/>
			<point x="475" y="-64"/>
			<point x="453" y="-25"/>
			<point x="401" y="83" type="curve"/>
			<point x="459" y="190"/>
			<point x="548" y="359"/>
			<point x="628" y="457" type="curve" smooth="yes"/>
			<point x="659" y="495"/>
			<point x="684" y="498"/>
			<point x="684" y="521" type="curve" smooth="yes"/>
			<point x="684" y="543"/>
			<point x="666" y="556"/>
			<point x="639" y="556" type="curve" smooth="yes"/>
			<point x="610" y="556"/>
			<point x="591" y="550"/>
			<point x="560" y="550" type="curve" smooth="yes"/>
			<point x="529" y="550"/>
			<point x="477" y="556"/>
			<point x="454" y="556" type="curve" smooth="yes"/>
			<point x="428" y="556"/>
			<point x="411" y="543"/>
			<point x="411" y="521" type="curve" smooth="yes"/>
			<point x="411" y="498"/>
			<point x="451" y="494"/>
			<point x="465" y="461" type="curve" smooth="yes"/>
			<point x="479" y="429"/>
			<point x="456" y="394"/>
		</contour>
		<contour>
			<point x="324" y="-61" type="curve"/>
			<point x="343" y="-80"/>
			<point x="355" y="-147"/>
			<point x="327" y="-147" type="curve" smooth="yes"/>
			<point x="289" y="-147"/>
			<point x="304" y="-80"/>
		</contour>
	</outline>
</glyph>
<glyph name="delta" format="2">
	<advance width="626"/>
	<unicode hex="03B4"/>
	<outline>
		<contour>
			<point x="313" y="-15" type="curve" smooth="yes"/>
			<point x="467" y="-15"/>
			<point x="601" y="93"/>
			<point x="601" y="267" type="curve" smooth="yes"/>
			<point x="601" y="545"/>
			<point x="200" y="632"/>
			<point x="225" y="698" type="curve" smooth="yes"/>
			<point x="241" y="740"/>
			<point x="367" y="675"/>
			<point x="460" y="620" type="curve" smooth="yes"/>
			<point x="557" y="562"/>
			<point x="638" y="712"/>
			<point x="518" y="770" type="curve" smooth="yes"/>
			<point x="450" y="803"/>
			<point x="359" y="816"/>
			<point x="291" y="816" type="curve" smooth="yes"/>
			<point x="202" y="816"/>
			<point x="106" y="789"/>
			<point x="106" y="693" type="curve" smooth="yes"/>
			<point x="106" y="628"/>
			<point x="163" y="583"/>
			<point x="292" y="507" type="curve"/>
			<point x="129" y="498"/>
			<point x="25" y="381"/>
			<point x="25" y="242" type="curve" smooth="yes"/>
			<point x="25" y="91"/>
			<point x="148" y="-15"/>
		</contour>
		<contour>
			<point x="357" y="79" type="curve" smooth="yes"/>
			<point x="277" y="65"/>
			<point x="221" y="152"/>
			<point x="202" y="243" type="curve" smooth="yes"/>
			<point x="183" y="336"/>
			<point x="216" y="418"/>
			<point x="275" y="428" type="curve" smooth="yes"/>
			<point x="358" y="443"/>
			<point x="417" y="336"/>
			<point x="432" y="250" type="curve" smooth="yes"/>
			<point x="446" y="167"/>
			<point x="419" y="89"/>
		</contour>
	</outline>
</glyph>
<glyph name="epsilon" format="2">
	<advance width="601"/>
	<unicode hex="03B5"/>
	<outline>
		<contour>
			<point x="286" y="-15" type="curve" smooth="yes"/>
			<point x="394" y="-15"/>
			<point x="508" y="34"/>
			<point x="561" y="130" type="curve" smooth="yes"/>
			<point x="575" y="154"/>
			<point x="576" y="166"/>
			<point x="561" y="177" type="curve" smooth="yes"/>
			<point x="549" y="186"/>
			<point x="540" y="183"/>
			<point x="519" y="165" type="curve" smooth="yes"/>
			<point x="461" y="116"/>
			<point x="215" y="94"/>
			<point x="215" y="195" type="curve" smooth="yes"/>
			<point x="215" y="221"/>
			<point x="230" y="241"/>
			<point x="250" y="255" type="curve"/>
			<point x="275" y="245"/>
			<point x="303" y="237"/>
			<point x="328" y="237" type="curve" smooth="yes"/>
			<point x="384" y="237"/>
			<point x="407" y="265"/>
			<point x="407" y="299" type="curve" smooth="yes"/>
			<point x="407" y="328"/>
			<point x="387" y="355"/>
			<point x="345" y="355" type="curve" smooth="yes"/>
			<point x="311" y="355"/>
			<point x="281" y="343"/>
			<point x="260" y="334" type="curve"/>
			<point x="207" y="334"/>
			<point x="178" y="362"/>
			<point x="178" y="401" type="curve" smooth="yes"/>
			<point x="178" y="442"/>
			<point x="210" y="473"/>
			<point x="265" y="473" type="curve" smooth="yes"/>
			<point x="314" y="473"/>
			<point x="364" y="450"/>
			<point x="397" y="409" type="curve" smooth="yes"/>
			<point x="437" y="358"/>
			<point x="462" y="317"/>
			<point x="489" y="328" type="curve" smooth="yes"/>
			<point x="513" y="338"/>
			<point x="547" y="492"/>
			<point x="545" y="517" type="curve" smooth="yes"/>
			<point x="542" y="549"/>
			<point x="525" y="550"/>
			<point x="474" y="543" type="curve" smooth="yes"/>
			<point x="420" y="536"/>
			<point x="384" y="566"/>
			<point x="286" y="566" type="curve" smooth="yes"/>
			<point x="167" y="566"/>
			<point x="41" y="514"/>
			<point x="41" y="404" type="curve" smooth="yes"/>
			<point x="41" y="338"/>
			<point x="81" y="303"/>
			<point x="161" y="286" type="curve"/>
			<point x="91" y="273"/>
			<point x="20" y="218"/>
			<point x="20" y="147" type="curve" smooth="yes"/>
			<point x="20" y="35"/>
			<point x="146" y="-15"/>
		</contour>
	</outline>
</glyph>
<glyph name="zeta" format="2">
	<advance width="518"/>
	<unicode hex="03B6"/>
	<outline>
		<contour>
			<point x="363" y="-62" type="curve" smooth="yes"/>
			<point x="363" y="-92"/>
			<point x="325" y="-103"/>
			<point x="274" y="-103" type="curve" smooth="yes"/>
			<point x="219" y="-103"/>
			<point x="156" y="-79"/>
			<point x="134" y="-79" type="curve" smooth="yes"/>
			<point x="98" y="-79"/>
			<point x="93" y="-117"/>
			<point x="105" y="-137" type="curve" smooth="yes"/>
			<point x="121" y="-164"/>
			<point x="199" y="-190"/>
			<point x="281" y="-190" type="curve" smooth="yes"/>
			<point x="432" y="-190"/>
			<point x="518" y="-119"/>
			<point x="518" y="-23" type="curve" smooth="yes"/>
			<point x="518" y="177"/>
			<point x="195" y="96"/>
			<point x="195" y="343" type="curve" smooth="yes"/>
			<point x="195" y="491"/>
			<point x="335" y="596"/>
			<point x="472" y="659" type="curve" smooth="yes"/>
			<point x="536" y="688"/>
			<point x="506" y="787"/>
			<point x="446" y="778" type="curve" smooth="yes"/>
			<point x="153" y="732"/>
			<point x="184" y="858"/>
			<point x="116" y="838" type="curve" smooth="yes"/>
			<point x="85" y="829"/>
			<point x="45" y="784"/>
			<point x="55" y="727" type="curve" smooth="yes"/>
			<point x="67" y="660"/>
			<point x="140" y="632"/>
			<point x="310" y="680" type="curve"/>
			<point x="164" y="602"/>
			<point x="35" y="463"/>
			<point x="35" y="276" type="curve" smooth="yes"/>
			<point x="35" y="-29"/>
			<point x="363" y="0"/>
		</contour>
	</outline>
</glyph>
<glyph name="theta" format="2">
	<advance width="682"/>
	<unicode hex="03B8"/>
	<outline>
		<contour>
			<point x="341" y="-14" type="curve" smooth="yes"/>
			<point x="559" y="-14"/>
			<point x="652" y="174"/>
			<point x="652" y="408" type="curve" smooth="yes"/>
			<point x="652" y="651"/>
			<point x="539" y="831"/>
			<point x="341" y="831" type="curve" smooth="yes"/>
			<point x="123" y="831"/>
			<point x="30" y="642"/>
			<point x="30" y="408" type="curve" smooth="yes"/>
			<point x="30" y="165"/>
			<point x="153" y="-14"/>
		</contour>
		<contour>
			<point x="196" y="469" type="curve"/>
			<point x="196" y="475"/>
			<point x="196" y="481"/>
			<point x="196" y="487" type="curve" smooth="yes"/>
			<point x="196" y="625"/>
			<point x="223" y="730"/>
			<point x="307" y="730" type="curve" smooth="yes"/>
			<point x="391" y="730"/>
			<point x="453" y="610"/>
			<point x="476" y="469" type="curve"/>
			<point x="373" y="464"/>
			<point x="299" y="464"/>
		</contour>
		<contour>
			<point x="375" y="107" type="curve" smooth="yes"/>
			<point x="293" y="107"/>
			<point x="232" y="220"/>
			<point x="208" y="357" type="curve"/>
			<point x="310" y="362"/>
			<point x="384" y="362"/>
			<point x="486" y="357" type="curve"/>
			<point x="486" y="283"/>
			<point x="483" y="107"/>
		</contour>
	</outline>
</glyph>
<glyph name="kappa" format="2">
	<advance width="753"/>
	<unicode hex="03BA"/>
	<outline>
		<contour>
			<point x="91" y="-5" type="curve" smooth="yes"/>
			<point x="142" y="-5"/>
			<point x="169" y="3"/>
			<point x="211" y="3" type="curve" smooth="yes"/>
			<point x="254" y="3"/>
			<point x="291" y="-5"/>
			<point x="331" y="-5" type="curve" smooth="yes"/>
			<point x="368" y="-5"/>
			<point x="392" y="13"/>
			<point x="392" y="39" type="curve" smooth="yes"/>
			<point x="392" y="86"/>
			<point x="354" y="76"/>
			<point x="315" y="132" type="curve" smooth="yes"/>
			<point x="264" y="206"/>
			<point x="330" y="243"/>
			<point x="369" y="269" type="curve"/>
			<point x="400" y="218"/>
			<point x="461" y="112"/>
			<point x="486" y="80" type="curve" smooth="yes"/>
			<point x="539" y="12"/>
			<point x="580" y="-15"/>
			<point x="669" y="-15" type="curve" smooth="yes"/>
			<point x="718" y="-15"/>
			<point x="763" y="3"/>
			<point x="763" y="32" type="curve" smooth="yes"/>
			<point x="763" y="64"/>
			<point x="740" y="59"/>
			<point x="691" y="97" type="curve" smooth="yes"/>
			<point x="652" y="127"/>
			<point x="597" y="179"/>
			<point x="564" y="231" type="curve" smooth="yes"/>
			<point x="486" y="352" type="line"/>
			<point x="538" y="387"/>
			<point x="610" y="429"/>
			<point x="642" y="449" type="curve" smooth="yes"/>
			<point x="687" y="477"/>
			<point x="715" y="481"/>
			<point x="718" y="514" type="curve" smooth="yes"/>
			<point x="720" y="536"/>
			<point x="704" y="558"/>
			<point x="667" y="558" type="curve" smooth="yes"/>
			<point x="627" y="558"/>
			<point x="603" y="550"/>
			<point x="560" y="550" type="curve" smooth="yes"/>
			<point x="518" y="550"/>
			<point x="470" y="558"/>
			<point x="440" y="558" type="curve" smooth="yes"/>
			<point x="412" y="558"/>
			<point x="389" y="536"/>
			<point x="389" y="514" type="curve" smooth="yes"/>
			<point x="389" y="472"/>
			<point x="442" y="482"/>
			<point x="450" y="448" type="curve" smooth="yes"/>
			<point x="458" y="415"/>
			<point x="387" y="367"/>
			<point x="349" y="346" type="curve" smooth="yes"/>
			<point x="322" y="332"/>
			<point x="308" y="325"/>
			<point x="298" y="329" type="curve" smooth="yes"/>
			<point x="287" y="333"/>
			<point x="284" y="343"/>
			<point x="284" y="371" type="curve" smooth="yes"/>
			<point x="284" y="408" type="line" smooth="yes"/>
			<point x="284" y="433"/>
			<point x="292" y="461"/>
			<point x="302" y="501" type="curve" smooth="yes"/>
			<point x="311" y="539"/>
			<point x="323" y="588"/>
			<point x="295" y="614" type="curve" smooth="yes"/>
			<point x="271" y="636"/>
			<point x="243" y="633"/>
			<point x="173" y="591" type="curve" smooth="yes"/>
			<point x="128" y="564"/>
			<point x="83" y="549"/>
			<point x="59" y="531" type="curve" smooth="yes"/>
			<point x="38" y="515"/>
			<point x="28" y="493"/>
			<point x="41" y="471" type="curve" smooth="yes"/>
			<point x="69" y="424"/>
			<point x="138" y="452"/>
			<point x="138" y="403" type="curve" smooth="yes"/>
			<point x="138" y="324" type="line" smooth="yes"/>
			<point x="138" y="240"/>
			<point x="132" y="165"/>
			<point x="107" y="132" type="curve" smooth="yes"/>
			<point x="66" y="78"/>
			<point x="30" y="86"/>
			<point x="30" y="39" type="curve" smooth="yes"/>
			<point x="30" y="13"/>
			<point x="54" y="-5"/>
		</contour>
	</outline>
</glyph>
<glyph name="lambda" format="2">
	<advance width="714"/>
	<unicode hex="03BB"/>
	<outline>
		<contour>
			<point x="124" y="827" type="curve" smooth="yes"/>
			<point x="56" y="827"/>
			<point x="36" y="782"/>
			<point x="36" y="754" type="curve" smooth="yes"/>
			<point x="36" y="646"/>
			<point x="206" y="671"/>
			<point x="275" y="553" type="curve" smooth="yes"/>
			<point x="300" y="510" type="line"/>
			<point x="300" y="509"/>
			<point x="299" y="509"/>
			<point x="299" y="508" type="curve"/>
			<point x="185" y="303" type="line" smooth="yes"/>
			<point x="131" y="207"/>
			<point x="89" y="129"/>
			<point x="58" y="94" type="curve" smooth="yes"/>
			<point x="26" y="57"/>
			<point x="0" y="52"/>
			<point x="0" y="29" type="curve" smooth="yes"/>
			<point x="0" y="7"/>
			<point x="18" y="-6"/>
			<point x="44" y="-6" type="curve" smooth="yes"/>
			<point x="66" y="-6"/>
			<point x="120" y="0"/>
			<point x="160" y="0" type="curve" smooth="yes"/>
			<point x="201" y="0"/>
			<point x="258" y="-6"/>
			<point x="287" y="-6" type="curve" smooth="yes"/>
			<point x="314" y="-6"/>
			<point x="332" y="7"/>
			<point x="332" y="29" type="curve" smooth="yes"/>
			<point x="332" y="52"/>
			<point x="295" y="57"/>
			<point x="282" y="88" type="curve" smooth="yes"/>
			<point x="269" y="120"/>
			<point x="301" y="174"/>
			<point x="358" y="270" type="curve" smooth="yes"/>
			<point x="397" y="336" type="line"/>
			<point x="427" y="280" type="line" smooth="yes"/>
			<point x="491" y="160"/>
			<point x="509" y="121"/>
			<point x="495" y="89" type="curve" smooth="yes"/>
			<point x="481" y="56"/>
			<point x="441" y="52"/>
			<point x="441" y="29" type="curve" smooth="yes"/>
			<point x="441" y="7"/>
			<point x="458" y="-6"/>
			<point x="484" y="-6" type="curve" smooth="yes"/>
			<point x="507" y="-6"/>
			<point x="559" y="0"/>
			<point x="590" y="0" type="curve" smooth="yes"/>
			<point x="621" y="0"/>
			<point x="640" y="-6"/>
			<point x="669" y="-6" type="curve" smooth="yes"/>
			<point x="696" y="-6"/>
			<point x="714" y="7"/>
			<point x="714" y="29" type="curve" smooth="yes"/>
			<point x="714" y="52"/>
			<point x="689" y="55"/>
			<point x="658" y="93" type="curve" smooth="yes"/>
			<point x="627" y="131"/>
			<point x="599" y="203"/>
			<point x="544" y="303" type="curve" smooth="yes"/>
			<point x="412" y="543" type="line" smooth="yes"/>
			<point x="322" y="706"/>
			<point x="260" y="827"/>
		</contour>
	</outline>
</glyph>
<glyph name="xi" format="2">
	<advance width="518"/>
	<unicode hex="03BE"/>
	<outline>
		<contour>
			<point x="363" y="-62" type="curve" smooth="yes"/>
			<point x="363" y="-92"/>
			<point x="325" y="-103"/>
			<point x="274" y="-103" type="curve" smooth="yes"/>
			<point x="219" y="-103"/>
			<point x="156" y="-79"/>
			<point x="134" y="-79" type="curve" smooth="yes"/>
			<point x="98" y="-79"/>
			<point x="93" y="-117"/>
			<point x="105" y="-137" type="curve" smooth="yes"/>
			<point x="121" y="-164"/>
			<point x="199" y="-190"/>
			<point x="281" y="-190" type="curve" smooth="yes"/>
			<point x="432" y="-190"/>
			<point x="518" y="-119"/>
			<point x="518" y="-23" type="curve" smooth="yes"/>
			<point x="518" y="170"/>
			<point x="185" y="110"/>
			<point x="185" y="236" type="curve" smooth="yes"/>
			<point x="185" y="306"/>
			<point x="278" y="333"/>
			<point x="394" y="343" type="curve" smooth="yes"/>
			<point x="477" y="350"/>
			<point x="466" y="486"/>
			<point x="395" y="476" type="curve" smooth="yes"/>
			<point x="317" y="465"/>
			<point x="237" y="472"/>
			<point x="237" y="527" type="curve" smooth="yes"/>
			<point x="237" y="600"/>
			<point x="391" y="633"/>
			<point x="462" y="659" type="curve" smooth="yes"/>
			<point x="528" y="683"/>
			<point x="496" y="787"/>
			<point x="436" y="778" type="curve" smooth="yes"/>
			<point x="143" y="732"/>
			<point x="174" y="858"/>
			<point x="106" y="838" type="curve" smooth="yes"/>
			<point x="75" y="829"/>
			<point x="30" y="784"/>
			<point x="45" y="727" type="curve" smooth="yes"/>
			<point x="62" y="661"/>
			<point x="160" y="652"/>
			<point x="280" y="690" type="curve"/>
			<point x="148" y="644"/>
			<point x="74" y="592"/>
			<point x="74" y="517" type="curve" smooth="yes"/>
			<point x="74" y="427"/>
			<point x="165" y="406"/>
			<point x="253" y="405" type="curve"/>
			<point x="179" y="403"/>
			<point x="25" y="349"/>
			<point x="25" y="196" type="curve" smooth="yes"/>
			<point x="25" y="-18"/>
			<point x="363" y="-3"/>
		</contour>
	</outline>
</glyph>
<glyph name="pi" format="2">
	<advance width="837"/>
	<unicode hex="03C0"/>
	<outline>
		<contour>
			<point x="121" y="-8" type="curve" smooth="yes"/>
			<point x="172" y="-8"/>
			<point x="189" y="0"/>
			<point x="231" y="0" type="curve" smooth="yes"/>
			<point x="274" y="0"/>
			<point x="291" y="-8"/>
			<point x="321" y="-8" type="curve" smooth="yes"/>
			<point x="348" y="-8"/>
			<point x="370" y="10"/>
			<point x="372" y="36" type="curve" smooth="yes"/>
			<point x="374" y="61"/>
			<point x="357" y="90"/>
			<point x="335" y="129" type="curve" smooth="yes"/>
			<point x="312" y="171"/>
			<point x="297" y="221"/>
			<point x="299" y="269" type="curve" smooth="yes"/>
			<point x="303" y="385" type="line" smooth="yes"/>
			<point x="305" y="432"/>
			<point x="338" y="446"/>
			<point x="411" y="446" type="curve" smooth="yes"/>
			<point x="486" y="446"/>
			<point x="521" y="431"/>
			<point x="523" y="380" type="curve" smooth="yes"/>
			<point x="527" y="269" type="line" smooth="yes"/>
			<point x="529" y="221"/>
			<point x="514" y="171"/>
			<point x="491" y="129" type="curve" smooth="yes"/>
			<point x="469" y="90"/>
			<point x="452" y="61"/>
			<point x="454" y="36" type="curve" smooth="yes"/>
			<point x="456" y="10"/>
			<point x="478" y="-8"/>
			<point x="505" y="-8" type="curve" smooth="yes"/>
			<point x="535" y="-8"/>
			<point x="552" y="0"/>
			<point x="595" y="0" type="curve" smooth="yes"/>
			<point x="637" y="0"/>
			<point x="654" y="-8"/>
			<point x="705" y="-8" type="curve" smooth="yes"/>
			<point x="742" y="-8"/>
			<point x="766" y="13"/>
			<point x="766" y="39" type="curve" smooth="yes"/>
			<point x="766" y="86"/>
			<point x="735" y="81"/>
			<point x="699" y="129" type="curve" smooth="yes"/>
			<point x="674" y="162"/>
			<point x="668" y="259"/>
			<point x="668" y="343" type="curve" smooth="yes"/>
			<point x="668" y="434"/>
			<point x="734" y="434"/>
			<point x="762" y="434" type="curve" smooth="yes"/>
			<point x="792" y="434"/>
			<point x="812" y="454"/>
			<point x="812" y="499" type="curve" smooth="yes"/>
			<point x="812" y="542"/>
			<point x="792" y="553"/>
			<point x="762" y="555" type="curve" smooth="yes"/>
			<point x="686" y="560"/>
			<point x="607" y="545"/>
			<point x="408" y="545" type="curve" smooth="yes"/>
			<point x="236" y="545"/>
			<point x="135" y="561"/>
			<point x="75" y="555" type="curve" smooth="yes"/>
			<point x="45" y="552"/>
			<point x="25" y="541"/>
			<point x="25" y="498" type="curve" smooth="yes"/>
			<point x="25" y="454"/>
			<point x="45" y="434"/>
			<point x="75" y="434" type="curve" smooth="yes"/>
			<point x="133" y="434"/>
			<point x="158" y="401"/>
			<point x="158" y="343" type="curve" smooth="yes"/>
			<point x="158" y="259"/>
			<point x="152" y="162"/>
			<point x="127" y="129" type="curve" smooth="yes"/>
			<point x="91" y="81"/>
			<point x="60" y="86"/>
			<point x="60" y="39" type="curve" smooth="yes"/>
			<point x="60" y="13"/>
			<point x="84" y="-8"/>
		</contour>
	</outline>
</glyph>
<glyph name="rho" format="2">
	<advance width="668"/>
	<unicode hex="03C1"/>
	<outline>
		<contour>
			<point x="21" y="-258" type="curve" smooth="yes"/>
			<point x="58" y="-258"/>
			<point x="126" y="-250"/>
			<point x="166" y="-250" type="curve" smooth="yes"/>
			<point x="201" y="-250"/>
			<point x="275" y="-258"/>
			<point x="306" y="-258" type="curve" smooth="yes"/>
			<point x="343" y="-258"/>
			<point x="357" y="-237"/>
			<point x="357" y="-214" type="curve" smooth="yes"/>
			<point x="357" y="-193"/>
			<point x="336" y="-175"/>
			<point x="308" y="-169" type="curve" smooth="yes"/>
			<point x="245" y="-155"/>
			<point x="197" y="-128"/>
			<point x="197" y="-67" type="curve" smooth="yes"/>
			<point x="197" y="35" type="line"/>
			<point x="234" y="-1"/>
			<point x="300" y="-15"/>
			<point x="353" y="-15" type="curve" smooth="yes"/>
			<point x="514" y="-15"/>
			<point x="643" y="108"/>
			<point x="643" y="276" type="curve" smooth="yes"/>
			<point x="643" y="436"/>
			<point x="523" y="565"/>
			<point x="363" y="565" type="curve" smooth="yes"/>
			<point x="199" y="565"/>
			<point x="51" y="465"/>
			<point x="51" y="226" type="curve" smooth="yes"/>
			<point x="51" y="62" type="line" smooth="yes"/>
			<point x="51" y="-205"/>
			<point x="-40" y="-155"/>
			<point x="-40" y="-214" type="curve" smooth="yes"/>
			<point x="-40" y="-235"/>
			<point x="-19" y="-258"/>
		</contour>
		<contour>
			<point x="362" y="80" type="curve" smooth="yes"/>
			<point x="279" y="81"/>
			<point x="224" y="179"/>
			<point x="218" y="284" type="curve" smooth="yes"/>
			<point x="212" y="394"/>
			<point x="235" y="464"/>
			<point x="306" y="461" type="curve" smooth="yes"/>
			<point x="401" y="457"/>
			<point x="448" y="340"/>
			<point x="452" y="241" type="curve" smooth="yes"/>
			<point x="456" y="144"/>
			<point x="426" y="79"/>
		</contour>
	</outline>
</glyph>
<glyph name="uni03C2" format="2">
	<advance width="575"/>
	<unicode hex="03C2"/>
	<outline>
		<contour>
			<point x="373" y="-62" type="curve" smooth="yes"/>
			<point x="373" y="-92"/>
			<point x="335" y="-103"/>
			<point x="284" y="-103" type="curve" smooth="yes"/>
			<point x="229" y="-103"/>
			<point x="166" y="-79"/>
			<point x="144" y="-79" type="curve" smooth="yes"/>
			<point x="108" y="-79"/>
			<point x="103" y="-117"/>
			<point x="115" y="-137" type="curve" smooth="yes"/>
			<point x="131" y="-164"/>
			<point x="209" y="-190"/>
			<point x="291" y="-190" type="curve" smooth="yes"/>
			<point x="442" y="-190"/>
			<point x="528" y="-119"/>
			<point x="528" y="-23" type="curve" smooth="yes"/>
			<point x="528" y="177"/>
			<point x="175" y="106"/>
			<point x="175" y="353" type="curve" smooth="yes"/>
			<point x="175" y="405"/>
			<point x="193" y="450"/>
			<point x="225" y="471" type="curve" smooth="yes"/>
			<point x="278" y="505"/>
			<point x="357" y="470"/>
			<point x="406" y="409" type="curve" smooth="yes"/>
			<point x="446" y="358"/>
			<point x="471" y="317"/>
			<point x="498" y="328" type="curve" smooth="yes"/>
			<point x="522" y="338"/>
			<point x="556" y="492"/>
			<point x="554" y="517" type="curve" smooth="yes"/>
			<point x="551" y="549"/>
			<point x="534" y="550"/>
			<point x="483" y="543" type="curve" smooth="yes"/>
			<point x="429" y="536"/>
			<point x="413" y="566"/>
			<point x="315" y="566" type="curve" smooth="yes"/>
			<point x="154" y="566"/>
			<point x="25" y="436"/>
			<point x="25" y="276" type="curve" smooth="yes"/>
			<point x="25" y="-29"/>
			<point x="373" y="0"/>
		</contour>
	</outline>
</glyph>
<glyph name="sigma" format="2">
	<advance width="648"/>
	<unicode hex="03C3"/>
	<outline>
		<contour>
			<point x="323" y="-15" type="curve" smooth="yes"/>
			<point x="487" y="-15"/>
			<point x="621" y="115"/>
			<point x="621" y="276" type="curve" smooth="yes"/>
			<point x="621" y="363"/>
			<point x="566" y="465"/>
			<point x="492" y="509" type="curve"/>
			<point x="582" y="507"/>
			<point x="667" y="531"/>
			<point x="676" y="593" type="curve" smooth="yes"/>
			<point x="692" y="703"/>
			<point x="560" y="716"/>
			<point x="548" y="702" type="curve" smooth="yes"/>
			<point x="539" y="692"/>
			<point x="555" y="636"/>
			<point x="526" y="607" type="curve" smooth="yes"/>
			<point x="492" y="573"/>
			<point x="410" y="565"/>
			<point x="323" y="565" type="curve" smooth="yes"/>
			<point x="158" y="565"/>
			<point x="25" y="436"/>
			<point x="25" y="276" type="curve" smooth="yes"/>
			<point x="25" y="108"/>
			<point x="158" y="-15"/>
		</contour>
		<contour>
			<point x="423" y="96" type="curve" smooth="yes"/>
			<point x="344" y="70"/>
			<point x="253" y="158"/>
			<point x="211" y="255" type="curve" smooth="yes"/>
			<point x="167" y="356"/>
			<point x="171" y="449"/>
			<point x="229" y="468" type="curve" smooth="yes"/>
			<point x="310" y="495"/>
			<point x="409" y="386"/>
			<point x="446" y="294" type="curve" smooth="yes"/>
			<point x="482" y="204"/>
			<point x="484" y="116"/>
		</contour>
	</outline>
</glyph>
<glyph name="tau" format="2">
	<advance width="545"/>
	<unicode hex="03C4"/>
	<outline>
		<contour>
			<point x="344" y="-15" type="curve" smooth="yes"/>
			<point x="422" y="-15"/>
			<point x="482" y="29"/>
			<point x="529" y="130" type="curve" smooth="yes"/>
			<point x="540" y="154"/>
			<point x="543" y="169"/>
			<point x="528" y="178" type="curve" smooth="yes"/>
			<point x="516" y="185"/>
			<point x="505" y="187"/>
			<point x="487" y="165" type="curve" smooth="yes"/>
			<point x="463" y="135"/>
			<point x="440" y="122"/>
			<point x="403" y="122" type="curve" smooth="yes"/>
			<point x="339" y="122"/>
			<point x="309" y="181"/>
			<point x="309" y="324" type="curve" smooth="yes"/>
			<point x="309" y="342"/>
			<point x="312" y="413"/>
			<point x="314" y="441" type="curve"/>
			<point x="388" y="436" type="line" smooth="yes"/>
			<point x="473" y="430"/>
			<point x="490" y="474"/>
			<point x="511" y="522" type="curve" smooth="yes"/>
			<point x="521" y="545"/>
			<point x="505" y="566"/>
			<point x="482" y="566" type="curve" smooth="yes"/>
			<point x="441" y="566"/>
			<point x="414" y="555"/>
			<point x="266" y="555" type="curve" smooth="yes"/>
			<point x="134" y="555"/>
			<point x="66" y="567"/>
			<point x="34" y="556" type="curve" smooth="yes"/>
			<point x="8" y="547"/>
			<point x="3" y="503"/>
			<point x="16" y="481" type="curve" smooth="yes"/>
			<point x="28" y="461"/>
			<point x="47" y="458"/>
			<point x="65" y="457" type="curve" smooth="yes"/>
			<point x="165" y="453" type="line"/>
			<point x="158" y="393"/>
			<point x="154" y="302"/>
			<point x="157" y="242" type="curve" smooth="yes"/>
			<point x="165" y="74"/>
			<point x="233" y="-15"/>
		</contour>
	</outline>
</glyph>
<glyph name="upsilon" format="2">
	<advance width="677"/>
	<unicode hex="03C5"/>
	<outline>
		<contour>
			<point x="361" y="-15" type="curve" smooth="yes"/>
			<point x="519" y="-15"/>
			<point x="652" y="97"/>
			<point x="652" y="288" type="curve" smooth="yes"/>
			<point x="652" y="406"/>
			<point x="593" y="520"/>
			<point x="487" y="573" type="curve" smooth="yes"/>
			<point x="436" y="598"/>
			<point x="406" y="572"/>
			<point x="432" y="531" type="curve" smooth="yes"/>
			<point x="518" y="394"/>
			<point x="523" y="114"/>
			<point x="368" y="114" type="curve" smooth="yes"/>
			<point x="277" y="114"/>
			<point x="258" y="204"/>
			<point x="258" y="287" type="curve" smooth="yes"/>
			<point x="258" y="465"/>
			<point x="299" y="519"/>
			<point x="272" y="559" type="curve" smooth="yes"/>
			<point x="255" y="584"/>
			<point x="212" y="585"/>
			<point x="183" y="560" type="curve" smooth="yes"/>
			<point x="156" y="536"/>
			<point x="129" y="521"/>
			<point x="101" y="504" type="curve" smooth="yes"/>
			<point x="44" y="469"/>
			<point x="16" y="450"/>
			<point x="36" y="416" type="curve" smooth="yes"/>
			<point x="55" y="384"/>
			<point x="117" y="406"/>
			<point x="113" y="295" type="curve" smooth="yes"/>
			<point x="107" y="124"/>
			<point x="161" y="-15"/>
		</contour>
	</outline>
</glyph>
<glyph name="phi" format="2">
	<advance width="818"/>
	<unicode hex="03C6"/>
	<outline>
		<contour>
			<point x="281" y="-258" type="curve" smooth="yes"/>
			<point x="332" y="-258"/>
			<point x="359" y="-250"/>
			<point x="401" y="-250" type="curve" smooth="yes"/>
			<point x="444" y="-250"/>
			<point x="481" y="-258"/>
			<point x="521" y="-258" type="curve" smooth="yes"/>
			<point x="558" y="-258"/>
			<point x="582" y="-240"/>
			<point x="582" y="-214" type="curve" smooth="yes"/>
			<point x="582" y="-167"/>
			<point x="546" y="-175"/>
			<point x="505" y="-121" type="curve" smooth="yes"/>
			<point x="495" y="-108"/>
			<point x="484" y="-63"/>
			<point x="478" y="-9" type="curve"/>
			<point x="692" y="22"/>
			<point x="793" y="172"/>
			<point x="793" y="325" type="curve" smooth="yes"/>
			<point x="793" y="463"/>
			<point x="705" y="565"/>
			<point x="552" y="565" type="curve" smooth="yes"/>
			<point x="430" y="565"/>
			<point x="328" y="469"/>
			<point x="328" y="289" type="curve" smooth="yes"/>
			<point x="328" y="103" type="line"/>
			<point x="231" y="132"/>
			<point x="197" y="227"/>
			<point x="197" y="327" type="curve" smooth="yes"/>
			<point x="197" y="399"/>
			<point x="229" y="475"/>
			<point x="295" y="531" type="curve" smooth="yes"/>
			<point x="332" y="562"/>
			<point x="305" y="601"/>
			<point x="250" y="583" type="curve" smooth="yes"/>
			<point x="94" y="531"/>
			<point x="25" y="406"/>
			<point x="25" y="288" type="curve" smooth="yes"/>
			<point x="25" y="118"/>
			<point x="139" y="10"/>
			<point x="325" y="-11" type="curve"/>
			<point x="321" y="-59"/>
			<point x="313" y="-99"/>
			<point x="297" y="-121" type="curve" smooth="yes"/>
			<point x="256" y="-175"/>
			<point x="220" y="-167"/>
			<point x="220" y="-214" type="curve" smooth="yes"/>
			<point x="220" y="-240"/>
			<point x="244" y="-258"/>
		</contour>
		<contour>
			<point x="474" y="103" type="curve"/>
			<point x="474" y="356" type="line" smooth="yes"/>
			<point x="474" y="397"/>
			<point x="486" y="454"/>
			<point x="542" y="454" type="curve" smooth="yes"/>
			<point x="590" y="454"/>
			<point x="618" y="389"/>
			<point x="618" y="317" type="curve" smooth="yes"/>
			<point x="618" y="223"/>
			<point x="583" y="132"/>
		</contour>
	</outline>
</glyph>
<glyph name="psi" format="2">
	<advance width="902"/>
	<unicode hex="03C8"/>
	<outline>
		<contour>
			<point x="378" y="-258" type="curve" smooth="yes"/>
			<point x="429" y="-258"/>
			<point x="456" y="-250"/>
			<point x="498" y="-250" type="curve" smooth="yes"/>
			<point x="541" y="-250"/>
			<point x="578" y="-258"/>
			<point x="618" y="-258" type="curve" smooth="yes"/>
			<point x="655" y="-258"/>
			<point x="679" y="-240"/>
			<point x="679" y="-214" type="curve" smooth="yes"/>
			<point x="679" y="-167"/>
			<point x="643" y="-175"/>
			<point x="602" y="-121" type="curve" smooth="yes"/>
			<point x="592" y="-108"/>
			<point x="581" y="-65"/>
			<point x="575" y="-11" type="curve"/>
			<point x="767" y="12"/>
			<point x="887" y="119"/>
			<point x="887" y="288" type="curve" smooth="yes"/>
			<point x="887" y="406"/>
			<point x="818" y="521"/>
			<point x="712" y="573" type="curve" smooth="yes"/>
			<point x="660" y="599"/>
			<point x="632" y="572"/>
			<point x="657" y="531" type="curve" smooth="yes"/>
			<point x="694" y="469"/>
			<point x="717" y="403"/>
			<point x="717" y="342" type="curve" smooth="yes"/>
			<point x="717" y="236"/>
			<point x="686" y="138"/>
			<point x="571" y="111" type="curve"/>
			<point x="571" y="369" type="line" smooth="yes"/>
			<point x="571" y="443"/>
			<point x="571" y="656"/>
			<point x="587" y="717" type="curve" smooth="yes"/>
			<point x="597" y="755"/>
			<point x="604" y="782"/>
			<point x="584" y="809" type="curve" smooth="yes"/>
			<point x="575" y="821"/>
			<point x="563" y="827"/>
			<point x="549" y="827" type="curve" smooth="yes"/>
			<point x="536" y="827"/>
			<point x="521" y="821"/>
			<point x="506" y="810" type="curve" smooth="yes"/>
			<point x="474" y="786"/>
			<point x="456" y="756"/>
			<point x="421" y="730" type="curve" smooth="yes"/>
			<point x="387" y="705"/>
			<point x="361" y="694"/>
			<point x="337" y="676" type="curve" smooth="yes"/>
			<point x="316" y="660"/>
			<point x="306" y="638"/>
			<point x="319" y="616" type="curve" smooth="yes"/>
			<point x="335" y="589"/>
			<point x="354" y="594"/>
			<point x="381" y="580" type="curve" smooth="yes"/>
			<point x="425" y="558"/>
			<point x="425" y="453"/>
			<point x="425" y="369" type="curve" smooth="yes"/>
			<point x="425" y="113" type="line"/>
			<point x="302" y="142"/>
			<point x="254" y="242"/>
			<point x="254" y="337" type="curve" smooth="yes"/>
			<point x="254" y="465"/>
			<point x="295" y="519"/>
			<point x="268" y="559" type="curve" smooth="yes"/>
			<point x="251" y="584"/>
			<point x="208" y="585"/>
			<point x="179" y="560" type="curve" smooth="yes"/>
			<point x="152" y="536"/>
			<point x="125" y="521"/>
			<point x="97" y="504" type="curve" smooth="yes"/>
			<point x="40" y="469"/>
			<point x="12" y="450"/>
			<point x="32" y="416" type="curve" smooth="yes"/>
			<point x="51" y="384"/>
			<point x="115" y="406"/>
			<point x="109" y="295" type="curve" smooth="yes"/>
			<point x="100" y="140"/>
			<point x="203" y="12"/>
			<point x="422" y="-11" type="curve"/>
			<point x="418" y="-59"/>
			<point x="410" y="-99"/>
			<point x="394" y="-121" type="curve" smooth="yes"/>
			<point x="353" y="-175"/>
			<point x="317" y="-167"/>
			<point x="317" y="-214" type="curve" smooth="yes"/>
			<point x="317" y="-240"/>
			<point x="341" y="-258"/>
		</contour>
	</outline>
</glyph>
<glyph name="omega" format="2">
	<advance width="969"/>
	<unicode hex="03C9"/>
	<outline>
		<contour>
			<point x="249" y="-15" type="curve" smooth="yes"/>
			<point x="359" y="-15"/>
			<point x="434" y="48"/>
			<point x="471" y="155" type="curve"/>
			<point x="494" y="56"/>
			<point x="566" y="-15"/>
			<point x="686" y="-15" type="curve" smooth="yes"/>
			<point x="831" y="-15"/>
			<point x="944" y="97"/>
			<point x="944" y="288" type="curve" smooth="yes"/>
			<point x="944" y="406"/>
			<point x="885" y="520"/>
			<point x="779" y="573" type="curve" smooth="yes"/>
			<point x="728" y="598"/>
			<point x="707" y="562"/>
			<point x="734" y="521" type="curve" smooth="yes"/>
			<point x="770" y="466"/>
			<point x="787" y="398"/>
			<point x="787" y="324" type="curve" smooth="yes"/>
			<point x="787" y="214"/>
			<point x="762" y="114"/>
			<point x="670" y="114" type="curve" smooth="yes"/>
			<point x="589" y="114"/>
			<point x="570" y="204"/>
			<point x="570" y="287" type="curve" smooth="yes"/>
			<point x="570" y="425"/>
			<point x="611" y="479"/>
			<point x="584" y="519" type="curve" smooth="yes"/>
			<point x="567" y="544"/>
			<point x="524" y="545"/>
			<point x="495" y="520" type="curve" smooth="yes"/>
			<point x="468" y="496"/>
			<point x="441" y="481"/>
			<point x="413" y="464" type="curve" smooth="yes"/>
			<point x="356" y="429"/>
			<point x="328" y="410"/>
			<point x="348" y="376" type="curve" smooth="yes"/>
			<point x="365" y="348"/>
			<point x="423" y="362"/>
			<point x="423" y="292" type="curve" smooth="yes"/>
			<point x="423" y="213"/>
			<point x="396" y="114"/>
			<point x="311" y="114" type="curve" smooth="yes"/>
			<point x="219" y="114"/>
			<point x="191" y="241"/>
			<point x="191" y="324" type="curve" smooth="yes"/>
			<point x="191" y="398"/>
			<point x="211" y="465"/>
			<point x="244" y="521" type="curve" smooth="yes"/>
			<point x="274" y="572"/>
			<point x="245" y="605"/>
			<point x="199" y="573" type="curve" smooth="yes"/>
			<point x="93" y="500"/>
			<point x="25" y="356"/>
			<point x="25" y="238" type="curve" smooth="yes"/>
			<point x="25" y="77"/>
			<point x="117" y="-15"/>
		</contour>
	</outline>
</glyph>
<glyph name="Alphatonos.ss01" format="2">
	<advance width="1010"/>
	<outline>
		<contour>
			<point x="894" y="0" type="curve" smooth="yes"/>
			<point x="951" y="0"/>
			<point x="980" y="40"/>
			<point x="980" y="74" type="curve" smooth="yes"/>
			<point x="980" y="108"/>
			<point x="920" y="149"/>
			<point x="863" y="280" type="curve" smooth="yes"/>
			<point x="812" y="396"/>
			<point x="834" y="491"/>
			<point x="877" y="561" type="curve" smooth="yes"/>
			<point x="922" y="634"/>
			<point x="965" y="674"/>
			<point x="920" y="715" type="curve" smooth="yes"/>
			<point x="885" y="747"/>
			<point x="815" y="713"/>
			<point x="739" y="666" type="curve" smooth="yes"/>
			<point x="728" y="659"/>
			<point x="723" y="659"/>
			<point x="712" y="668" type="curve" smooth="yes"/>
			<point x="641" y="730"/>
			<point x="568" y="753"/>
			<point x="449" y="753" type="curve" smooth="yes"/>
			<point x="316" y="753"/>
			<point x="268" y="701"/>
			<point x="267" y="667" type="curve" smooth="yes"/>
			<point x="266" y="635"/>
			<point x="303" y="616"/>
			<point x="349" y="625" type="curve" smooth="yes"/>
			<point x="416" y="639"/>
			<point x="520" y="631"/>
			<point x="572" y="601" type="curve" smooth="yes"/>
			<point x="588" y="592"/>
			<point x="588" y="582"/>
			<point x="572" y="573" type="curve" smooth="yes"/>
			<point x="309" y="421"/>
			<point x="129" y="100"/>
			<point x="258" y="5" type="curve" smooth="yes"/>
			<point x="355" y="-66"/>
			<point x="619" y="52"/>
			<point x="704" y="243" type="curve" smooth="yes"/>
			<point x="711" y="259"/>
			<point x="721" y="258"/>
			<point x="723" y="243" type="curve" smooth="yes"/>
			<point x="742" y="89"/>
			<point x="801" y="0"/>
		</contour>
		<contour>
			<point x="400" y="159" type="curve" smooth="yes"/>
			<point x="363" y="185"/>
			<point x="390" y="266"/>
			<point x="474" y="371" type="curve" smooth="yes"/>
			<point x="537" y="449"/>
			<point x="599" y="492"/>
			<point x="635" y="515" type="curve" smooth="yes"/>
			<point x="649" y="524"/>
			<point x="655" y="523"/>
			<point x="662" y="510" type="curve" smooth="yes"/>
			<point x="688" y="456"/>
			<point x="669" y="375"/>
			<point x="596" y="276" type="curve" smooth="yes"/>
			<point x="525" y="180"/>
			<point x="437" y="133"/>
		</contour>
		<contour>
			<point x="7" y="535" type="curve" smooth="yes"/>
			<point x="34" y="511"/>
			<point x="160" y="596"/>
			<point x="203" y="643" type="curve" smooth="yes"/>
			<point x="236" y="677"/>
			<point x="236" y="726"/>
			<point x="206" y="752" type="curve" smooth="yes"/>
			<point x="176" y="779"/>
			<point x="134" y="775"/>
			<point x="98" y="740" type="curve" smooth="yes"/>
			<point x="53" y="696"/>
			<point x="-21" y="560"/>
		</contour>
	</outline>
</glyph>
<glyph name="Epsilontonos.ss01" format="2">
	<advance width="899"/>
	<outline>
		<contour>
			<point x="539" y="-14" type="curve" smooth="yes"/>
			<point x="719" y="-14"/>
			<point x="818" y="101"/>
			<point x="870" y="230" type="curve" smooth="yes"/>
			<point x="883" y="262"/>
			<point x="882" y="288"/>
			<point x="868" y="295" type="curve" smooth="yes"/>
			<point x="845" y="306"/>
			<point x="831" y="290"/>
			<point x="807" y="256" type="curve" smooth="yes"/>
			<point x="762" y="192"/>
			<point x="691" y="142"/>
			<point x="597" y="142" type="curve" smooth="yes"/>
			<point x="485" y="142"/>
			<point x="382" y="196"/>
			<point x="348" y="275" type="curve" smooth="yes"/>
			<point x="316" y="349"/>
			<point x="363" y="349"/>
			<point x="406" y="352" type="curve" smooth="yes"/>
			<point x="517" y="358"/>
			<point x="559" y="339"/>
			<point x="581" y="299" type="curve" smooth="yes"/>
			<point x="602" y="260"/>
			<point x="629" y="231"/>
			<point x="666" y="242" type="curve" smooth="yes"/>
			<point x="696" y="251"/>
			<point x="702" y="309"/>
			<point x="692" y="391" type="curve" smooth="yes"/>
			<point x="684" y="457"/>
			<point x="655" y="519"/>
			<point x="602" y="519" type="curve" smooth="yes"/>
			<point x="539" y="519"/>
			<point x="571" y="434"/>
			<point x="396" y="448" type="curve" smooth="yes"/>
			<point x="342" y="452"/>
			<point x="307" y="453"/>
			<point x="327" y="524" type="curve"/>
			<point x="355" y="604"/>
			<point x="423" y="660"/>
			<point x="512" y="660" type="curve" smooth="yes"/>
			<point x="604" y="660"/>
			<point x="665" y="610"/>
			<point x="717" y="527" type="curve" smooth="yes"/>
			<point x="752" y="471"/>
			<point x="786" y="474"/>
			<point x="809" y="504" type="curve" smooth="yes"/>
			<point x="828" y="529"/>
			<point x="847" y="664"/>
			<point x="845" y="695" type="curve" smooth="yes"/>
			<point x="842" y="738"/>
			<point x="819" y="740"/>
			<point x="753" y="730" type="curve" smooth="yes"/>
			<point x="684" y="720"/>
			<point x="661" y="760"/>
			<point x="539" y="760" type="curve" smooth="yes"/>
			<point x="336" y="760"/>
			<point x="162" y="586"/>
			<point x="162" y="373" type="curve" smooth="yes"/>
			<point x="162" y="160"/>
			<point x="326" y="-14"/>
		</contour>
		<contour>
			<point x="7" y="535" type="curve" smooth="yes"/>
			<point x="34" y="511"/>
			<point x="160" y="596"/>
			<point x="203" y="643" type="curve" smooth="yes"/>
			<point x="236" y="677"/>
			<point x="236" y="726"/>
			<point x="206" y="752" type="curve" smooth="yes"/>
			<point x="176" y="779"/>
			<point x="134" y="775"/>
			<point x="98" y="740" type="curve" smooth="yes"/>
			<point x="53" y="696"/>
			<point x="-21" y="560"/>
		</contour>
	</outline>
</glyph>
<glyph name="alpha.ss01" format="2">
	<advance width="670"/>
	<outline>
		<contour>
			<point x="568" y="-7" type="curve" smooth="yes"/>
			<point x="611" y="-7"/>
			<point x="650" y="33"/>
			<point x="650" y="66" type="curve" smooth="yes"/>
			<point x="650" y="100"/>
			<point x="589" y="146"/>
			<point x="546" y="245" type="curve" smooth="yes"/>
			<point x="508" y="333"/>
			<point x="502" y="375"/>
			<point x="535" y="429" type="curve" smooth="yes"/>
			<point x="569" y="484"/>
			<point x="611" y="513"/>
			<point x="578" y="546" type="curve" smooth="yes"/>
			<point x="555" y="569"/>
			<point x="490" y="550"/>
			<point x="427" y="519" type="curve"/>
			<point x="378" y="556"/>
			<point x="327" y="575"/>
			<point x="250" y="575" type="curve" smooth="yes"/>
			<point x="149" y="575"/>
			<point x="60" y="525"/>
			<point x="62" y="499" type="curve" smooth="yes"/>
			<point x="64" y="474"/>
			<point x="81" y="455"/>
			<point x="116" y="456" type="curve" smooth="yes"/>
			<point x="163" y="458"/>
			<point x="230" y="463"/>
			<point x="287" y="440" type="curve"/>
			<point x="74" y="322"/>
			<point x="-19" y="77"/>
			<point x="80" y="3" type="curve" smooth="yes"/>
			<point x="146" y="-46"/>
			<point x="318" y="24"/>
			<point x="405" y="159" type="curve"/>
			<point x="436" y="48"/>
			<point x="503" y="-7"/>
		</contour>
		<contour>
			<point x="233" y="163" type="curve" smooth="yes"/>
			<point x="205" y="183"/>
			<point x="218" y="234"/>
			<point x="264" y="291" type="curve" smooth="yes"/>
			<point x="299" y="335"/>
			<point x="328" y="359"/>
			<point x="357" y="380" type="curve"/>
			<point x="384" y="331"/>
			<point x="377" y="265"/>
			<point x="342" y="216" type="curve" smooth="yes"/>
			<point x="302" y="161"/>
			<point x="260" y="144"/>
		</contour>
	</outline>
</glyph>
<glyph name="beta.alt" format="2">
	<advance width="658"/>
	<outline>
		<contour>
			<point x="197" y="-67" type="curve" smooth="yes"/>
			<point x="197" y="35" type="line"/>
			<point x="234" y="-1"/>
			<point x="300" y="-15"/>
			<point x="353" y="-15" type="curve" smooth="yes"/>
			<point x="514" y="-15"/>
			<point x="633" y="68"/>
			<point x="633" y="236" type="curve" smooth="yes"/>
			<point x="633" y="336"/>
			<point x="555" y="414"/>
			<point x="443" y="433" type="curve"/>
			<point x="545" y="464"/>
			<point x="588" y="540"/>
			<point x="588" y="619" type="curve" smooth="yes"/>
			<point x="588" y="739"/>
			<point x="465" y="815"/>
			<point x="346" y="815" type="curve" smooth="yes"/>
			<point x="222" y="815"/>
			<point x="51" y="760"/>
			<point x="51" y="481" type="curve" smooth="yes"/>
			<point x="51" y="62" type="line" smooth="yes"/>
			<point x="51" y="-205"/>
			<point x="-40" y="-155"/>
			<point x="-40" y="-214" type="curve" smooth="yes"/>
			<point x="-40" y="-235"/>
			<point x="-19" y="-258"/>
			<point x="21" y="-258" type="curve" smooth="yes"/>
			<point x="58" y="-258"/>
			<point x="126" y="-250"/>
			<point x="166" y="-250" type="curve" smooth="yes"/>
			<point x="201" y="-250"/>
			<point x="275" y="-258"/>
			<point x="306" y="-258" type="curve" smooth="yes"/>
			<point x="343" y="-258"/>
			<point x="357" y="-237"/>
			<point x="357" y="-214" type="curve" smooth="yes"/>
			<point x="357" y="-193"/>
			<point x="336" y="-175"/>
			<point x="308" y="-169" type="curve" smooth="yes"/>
			<point x="245" y="-155"/>
			<point x="197" y="-128"/>
		</contour>
		<contour>
			<point x="307" y="480" type="curve" smooth="yes"/>
			<point x="231" y="489"/>
			<point x="228" y="386"/>
			<point x="307" y="375" type="curve" smooth="yes"/>
			<point x="391" y="363"/>
			<point x="442" y="302"/>
			<point x="442" y="211" type="curve" smooth="yes"/>
			<point x="442" y="134"/>
			<point x="416" y="80"/>
			<point x="352" y="80" type="curve" smooth="yes"/>
			<point x="259" y="80"/>
			<point x="197" y="149"/>
			<point x="197" y="294" type="curve" smooth="yes"/>
			<point x="197" y="498" type="line" smooth="yes"/>
			<point x="197" y="664"/>
			<point x="231" y="727"/>
			<point x="307" y="727" type="curve" smooth="yes"/>
			<point x="372" y="727"/>
			<point x="416" y="646"/>
			<point x="416" y="589" type="curve" smooth="yes"/>
			<point x="416" y="510"/>
			<point x="376" y="472"/>
		</contour>
	</outline>
</glyph>
<glyph name="gamma.ss01" format="2">
	<advance width="654"/>
	<outline>
		<contour>
			<point x="156" y="241" type="curve" smooth="yes"/>
			<point x="249" y="72" type="line"/>
			<point x="264" y="-179"/>
			<point x="167" y="-155"/>
			<point x="167" y="-213" type="curve" smooth="yes"/>
			<point x="167" y="-234"/>
			<point x="188" y="-257"/>
			<point x="228" y="-257" type="curve" smooth="yes"/>
			<point x="257" y="-257"/>
			<point x="292" y="-250"/>
			<point x="325" y="-250" type="curve" smooth="yes"/>
			<point x="358" y="-250"/>
			<point x="393" y="-257"/>
			<point x="422" y="-257" type="curve" smooth="yes"/>
			<point x="462" y="-257"/>
			<point x="483" y="-234"/>
			<point x="483" y="-213" type="curve" smooth="yes"/>
			<point x="483" y="-155"/>
			<point x="386" y="-179"/>
			<point x="401" y="72" type="curve"/>
			<point x="493" y="241" type="line" smooth="yes"/>
			<point x="548" y="341"/>
			<point x="597" y="419"/>
			<point x="628" y="457" type="curve" smooth="yes"/>
			<point x="659" y="495"/>
			<point x="684" y="498"/>
			<point x="684" y="521" type="curve" smooth="yes"/>
			<point x="684" y="543"/>
			<point x="666" y="556"/>
			<point x="639" y="556" type="curve" smooth="yes"/>
			<point x="610" y="556"/>
			<point x="591" y="550"/>
			<point x="560" y="550" type="curve" smooth="yes"/>
			<point x="529" y="550"/>
			<point x="477" y="556"/>
			<point x="454" y="556" type="curve" smooth="yes"/>
			<point x="428" y="556"/>
			<point x="411" y="543"/>
			<point x="411" y="521" type="curve" smooth="yes"/>
			<point x="411" y="498"/>
			<point x="451" y="494"/>
			<point x="465" y="461" type="curve" smooth="yes"/>
			<point x="479" y="429"/>
			<point x="459" y="384"/>
			<point x="396" y="264" type="curve" smooth="yes"/>
			<point x="367" y="209" type="line"/>
			<point x="329" y="274" type="line" smooth="yes"/>
			<point x="273" y="370"/>
			<point x="239" y="430"/>
			<point x="252" y="462" type="curve" smooth="yes"/>
			<point x="265" y="493"/>
			<point x="302" y="498"/>
			<point x="302" y="521" type="curve" smooth="yes"/>
			<point x="302" y="543"/>
			<point x="284" y="556"/>
			<point x="257" y="556" type="curve" smooth="yes"/>
			<point x="228" y="556"/>
			<point x="171" y="550"/>
			<point x="130" y="550" type="curve" smooth="yes"/>
			<point x="90" y="550"/>
			<point x="36" y="556"/>
			<point x="14" y="556" type="curve" smooth="yes"/>
			<point x="-12" y="556"/>
			<point x="-30" y="543"/>
			<point x="-30" y="521" type="curve" smooth="yes"/>
			<point x="-30" y="498"/>
			<point x="-4" y="493"/>
			<point x="28" y="456" type="curve" smooth="yes"/>
			<point x="59" y="421"/>
			<point x="103" y="337"/>
		</contour>
	</outline>
</glyph>
<glyph name="gravecomb.case" format="2">
	<advance width="0"/>
	<anchor x="119" y="745" name="_top"/>
	<anchor x="119" y="957" name="top"/>
	<outline>
		<contour>
			<point x="248" y="802" type="curve" smooth="yes"/>
			<point x="268" y="833"/>
			<point x="162" y="945"/>
			<point x="107" y="976" type="curve" smooth="yes"/>
			<point x="63" y="1001"/>
			<point x="21" y="993"/>
			<point x="-1" y="960" type="curve" smooth="yes"/>
			<point x="-23" y="927"/>
			<point x="-15" y="885"/>
			<point x="25" y="860" type="curve" smooth="yes"/>
			<point x="79" y="826"/>
			<point x="228" y="771"/>
		</contour>
	</outline>
</glyph>
